<svg xmlns="http://www.w3.org/2000/svg" xmlns:xlink="http://www.w3.org/1999/xlink" id="visual" viewBox="0 0 900 600" width="900" height="600" version="1.1"><rect x="0" y="0" width="900" height="600" fill="#FFFFFF"/><defs><linearGradient id="grad1_0" x1="33.3%" y1="0%" x2="100%" y2="100%"><stop offset="20%" stop-color="#ffffff" stop-opacity="1"/><stop offset="80%" stop-color="#ffffff" stop-opacity="1"/></linearGradient></defs><defs><linearGradient id="grad2_0" x1="0%" y1="0%" x2="66.7%" y2="100%"><stop offset="20%" stop-color="#ffffff" stop-opacity="1"/><stop offset="80%" stop-color="#ffffff" stop-opacity="1"/></linearGradient></defs><g transform="translate(900, 0)"><path d="M0 243.4C-38.9 231.1 -77.8 218.8 -115.5 200.1C-153.2 181.3 -189.7 156.1 -210.8 121.7C-231.9 87.3 -237.6 43.6 -243.4 0L0 0Z" fill="#0B60A8"/></g><g transform="translate(0, 600)"><path d="M0 -243.4C39.2 -231.5 78.3 -219.7 116 -200.9C153.7 -182.1 189.8 -156.3 210.8 -121.7C231.7 -87 237.6 -43.5 243.4 0L0 0Z" fill="#0B60A8"/></g></svg>