<svg xmlns="http://www.w3.org/2000/svg" xmlns:xlink="http://www.w3.org/1999/xlink" id="visual" viewBox="0 0 900 600" width="900" height="600" version="1.1"><g><g transform="translate(326 80)"><path d="M104.9 -33.1C118.8 8.8 101.2 61.9 65.2 87.5C29.1 113.2 -25.3 111.4 -61.8 84.9C-98.4 58.4 -117.1 7.1 -103.8 -33.8C-90.5 -74.7 -45.3 -105.3 0.1 -105.3C45.5 -105.4 91 -74.9 104.9 -33.1Z" fill="#0B60A8"/></g><g transform="translate(865 435)"><path d="M52.7 -17.8C58.6 1.1 47 25 28.2 38.7C9.3 52.4 -17 56 -33.4 44.4C-49.9 32.8 -56.5 6.2 -49.3 -14.6C-42.1 -35.3 -21.1 -50 1.2 -50.4C23.4 -50.8 46.7 -36.8 52.7 -17.8Z" fill="#0B60A8"/></g><g transform="translate(26 527)"><path d="M87.1 -28.3C99.3 9.4 86.4 55.3 55 78.9C23.5 102.5 -26.4 103.8 -58.1 80.6C-89.9 57.4 -103.4 9.7 -90.6 -28.6C-77.9 -67 -39 -96 -0.8 -95.7C37.4 -95.5 74.8 -66 87.1 -28.3Z" fill="#0B60A8"/></g></g></svg>