<svg xmlns="http://www.w3.org/2000/svg" xmlns:xlink="http://www.w3.org/1999/xlink" id="visual" viewBox="0 0 900 600" width="900" height="600" version="1.1"><rect x="0" y="0" width="900" height="600" fill="#FFFFFF"/><defs><linearGradient id="grad1_0" x1="33.3%" y1="100%" x2="100%" y2="0%"><stop offset="20%" stop-color="#185bb4" stop-opacity="1"/><stop offset="80%" stop-color="#185bb4" stop-opacity="1"/></linearGradient></defs><defs><linearGradient id="grad1_1" x1="33.3%" y1="100%" x2="100%" y2="0%"><stop offset="20%" stop-color="#185bb4" stop-opacity="1"/><stop offset="80%" stop-color="#9da9da" stop-opacity="1"/></linearGradient></defs><defs><linearGradient id="grad1_2" x1="33.3%" y1="100%" x2="100%" y2="0%"><stop offset="20%" stop-color="#ffffff" stop-opacity="1"/><stop offset="80%" stop-color="#9da9da" stop-opacity="1"/></linearGradient></defs><defs><linearGradient id="grad2_0" x1="0%" y1="100%" x2="66.7%" y2="0%"><stop offset="20%" stop-color="#185bb4" stop-opacity="1"/><stop offset="80%" stop-color="#185bb4" stop-opacity="1"/></linearGradient></defs><defs><linearGradient id="grad2_1" x1="0%" y1="100%" x2="66.7%" y2="0%"><stop offset="20%" stop-color="#9da9da" stop-opacity="1"/><stop offset="80%" stop-color="#185bb4" stop-opacity="1"/></linearGradient></defs><defs><linearGradient id="grad2_2" x1="0%" y1="100%" x2="66.7%" y2="0%"><stop offset="20%" stop-color="#9da9da" stop-opacity="1"/><stop offset="80%" stop-color="#ffffff" stop-opacity="1"/></linearGradient></defs><g transform="translate(900, 600)"><path d="M-340 0C-337.8 -45.2 -335.5 -90.3 -321.5 -133.2C-307.5 -176 -281.8 -216.6 -248.6 -248.6C-215.4 -280.5 -174.7 -303.8 -132 -318.7C-89.4 -333.7 -44.7 -340.3 0 -347L0 0Z" fill="#ced3ed"/><path d="M-226.7 0C-225.2 -30.1 -223.7 -60.2 -214.3 -88.8C-205 -117.4 -187.9 -144.4 -165.7 -165.7C-143.6 -187 -116.5 -202.5 -88 -212.5C-59.6 -222.5 -29.8 -226.9 0 -231.3L0 0Z" fill="#6880c7"/><path d="M-113.3 0C-112.6 -15.1 -111.8 -30.1 -107.2 -44.4C-102.5 -58.7 -93.9 -72.2 -82.9 -82.9C-71.8 -93.5 -58.2 -101.3 -44 -106.2C-29.8 -111.2 -14.9 -113.4 0 -115.7L0 0Z" fill="#185bb4"/></g><g transform="translate(0, 0)"><path d="M339 0C340.6 47.4 342.1 94.9 324.8 134.5C307.5 174.2 271.2 206.1 236.9 236.9C202.5 267.7 170 297.5 130.9 316C91.7 334.5 45.9 341.7 0 349L0 0Z" fill="#ced3ed"/><path d="M226 0C227 31.6 228.1 63.2 216.5 89.7C205 116.1 180.8 137.4 157.9 157.9C135 178.5 113.4 198.3 87.3 210.6C61.1 223 30.6 227.8 0 232.7L0 0Z" fill="#6880c7"/><path d="M113 0C113.5 15.8 114 31.6 108.3 44.8C102.5 58.1 90.4 68.7 79 79C67.5 89.2 56.7 99.2 43.6 105.3C30.6 111.5 15.3 113.9 0 116.3L0 0Z" fill="#185bb4"/></g></svg>