<svg xmlns="http://www.w3.org/2000/svg" xmlns:xlink="http://www.w3.org/1999/xlink" id="visual" viewBox="0 0 900 600" width="900" height="600" version="1.1"><rect x="0" y="0" width="900" height="600" fill="#d2e3f9"/><defs><linearGradient id="grad1_0" x1="33.3%" y1="100%" x2="100%" y2="0%"><stop offset="20%" stop-color="#ffffff" stop-opacity="1"/><stop offset="80%" stop-color="#ffffff" stop-opacity="1"/></linearGradient></defs><defs><linearGradient id="grad1_1" x1="33.3%" y1="100%" x2="100%" y2="0%"><stop offset="20%" stop-color="#ffffff" stop-opacity="1"/><stop offset="80%" stop-color="#d2e3f9" stop-opacity="1"/></linearGradient></defs><defs><linearGradient id="grad2_0" x1="0%" y1="100%" x2="66.7%" y2="0%"><stop offset="20%" stop-color="#ffffff" stop-opacity="1"/><stop offset="80%" stop-color="#ffffff" stop-opacity="1"/></linearGradient></defs><defs><linearGradient id="grad2_1" x1="0%" y1="100%" x2="66.7%" y2="0%"><stop offset="20%" stop-color="#d2e3f9" stop-opacity="1"/><stop offset="80%" stop-color="#ffffff" stop-opacity="1"/></linearGradient></defs><g transform="translate(900, 600)"><path d="M-486.7 0C-487.6 -71.2 -488.4 -142.3 -449.7 -186.3C-411 -230.2 -332.8 -246.9 -283.5 -283.5C-234.3 -320.2 -213.9 -376.7 -171.4 -413.9C-129 -451.1 -64.5 -468.9 0 -486.7L0 0Z" fill="#e9f1fc"/><path d="M-243.4 0C-243.8 -35.6 -244.2 -71.2 -224.8 -93.1C-205.5 -115.1 -166.4 -123.5 -141.8 -141.8C-117.1 -160.1 -106.9 -188.4 -85.7 -206.9C-64.5 -225.5 -32.3 -234.5 0 -243.4L0 0Z" fill="#ffffff"/></g><g transform="translate(0, 0)"><path d="M486.7 0C456 51.5 425.2 103 408.4 169.1C391.5 235.3 388.5 316.2 344.2 344.2C299.9 372.2 214.3 347.2 150 362.2C85.8 377.1 42.9 431.9 0 486.7L0 0Z" fill="#e9f1fc"/><path d="M243.4 0C228 25.7 212.6 51.5 204.2 84.6C195.7 117.7 194.2 158.1 172.1 172.1C149.9 186.1 107.1 173.6 75 181.1C42.9 188.6 21.4 216 0 243.4L0 0Z" fill="#ffffff"/></g></svg>