<!-- <svg xmlns="http://www.w3.org/2000/svg" xmlns:xlink="http://www.w3.org/1999/xlink" id="visual" viewBox="0 0 1366 768" width="1366" height="768" version="1.1"><path d="M0 423L32.5 441C65 459 130 495 195 528.7C260 562.3 325 593.7 390 594.2C455 594.7 520 564.3 585.2 553.7C650.3 543 715.7 552 780.8 565.8C846 579.7 911 598.3 976 611C1041 623.7 1106 630.3 1171 610.7C1236 591 1301 545 1333.5 522L1366 499L1366 769L1333.5 769C1301 769 1236 769 1171 769C1106 769 1041 769 976 769C911 769 846 769 780.8 769C715.7 769 650.3 769 585.2 769C520 769 455 769 390 769C325 769 260 769 195 769C130 769 65 769 32.5 769L0 769Z" fill="#5776FA" stroke-linecap="round" stroke-linejoin="miter"/></svg> -->
<svg xmlns="http://www.w3.org/2000/svg" xmlns:xlink="http://www.w3.org/1999/xlink" id="visual" viewBox="0 0 1366 768" width="1366" height="768" version="1.1"><path d="M0 480L32.5 495.2C65 510.3 130 540.7 195 568.8C260 597 325 623 390 623.3C455 623.7 520 598.3 585.2 589.3C650.3 580.3 715.7 587.7 780.8 599.2C846 610.7 911 626.3 976 637C1041 647.7 1106 653.3 1171 637C1236 620.7 1301 582.3 1333.5 563.2L1366 544L1366 769L1333.5 769C1301 769 1236 769 1171 769C1106 769 1041 769 976 769C911 769 846 769 780.8 769C715.7 769 650.3 769 585.2 769C520 769 455 769 390 769C325 769 260 769 195 769C130 769 65 769 32.5 769L0 769Z" fill="#5776FA" stroke-linecap="round" stroke-linejoin="miter"/></svg>