<svg xmlns="http://www.w3.org/2000/svg" width="500" viewBox="0 0 375 375" height="500" version="1.0"><defs><clipPath id="a"><path d="M39.7 145.387h18.57v18.57H39.7Zm0 0"/></clipPath><clipPath id="b"><path d="M48.984 145.387a9.283 9.283 0 0 0-6.566 2.719 9.136 9.136 0 0 0-2.012 3.015 9.158 9.158 0 0 0-.707 3.55c0 1.231.235 2.419.707 3.556a9.16 9.16 0 0 0 2.012 3.011 9.22 9.22 0 0 0 3.012 2.012 9.177 9.177 0 0 0 3.554.707c1.23 0 2.414-.234 3.551-.707a9.14 9.14 0 0 0 3.012-2.012 9.232 9.232 0 0 0 2.016-3.011 9.25 9.25 0 0 0 .707-3.555 9.23 9.23 0 0 0-.708-3.55 9.207 9.207 0 0 0-2.015-3.017 9.2 9.2 0 0 0-3.012-2.011 9.23 9.23 0 0 0-3.55-.707Zm0 0"/></clipPath><clipPath id="c"><path d="M75.879 145.387h18.57v18.57H75.88Zm0 0"/></clipPath><clipPath id="d"><path d="M85.164 145.387a9.283 9.283 0 0 0-6.566 2.719 9.196 9.196 0 0 0-2.012 3.015 9.158 9.158 0 0 0-.707 3.55c0 1.231.234 2.419.707 3.556a9.22 9.22 0 0 0 2.012 3.011 9.22 9.22 0 0 0 3.011 2.012 9.177 9.177 0 0 0 3.555.707c1.23 0 2.414-.234 3.55-.707a9.196 9.196 0 0 0 3.016-2.012 9.283 9.283 0 0 0 2.012-10.117 9.258 9.258 0 0 0-5.027-5.027 9.23 9.23 0 0 0-3.55-.707Zm0 0"/></clipPath><clipPath id="e"><path d="M111.992 145.387h18.567v18.57h-18.567Zm0 0"/></clipPath><clipPath id="f"><path d="M121.273 145.387a9.283 9.283 0 0 0-6.563 2.719 9.136 9.136 0 0 0-2.01 3.015 9.158 9.158 0 0 0-.708 3.55c0 1.231.235 2.419.707 3.556a9.16 9.16 0 0 0 2.012 3.011 9.22 9.22 0 0 0 3.012 2.012 9.158 9.158 0 0 0 3.55.707 9.163 9.163 0 0 0 3.555-.707 9.22 9.22 0 0 0 3.012-2.012 9.16 9.16 0 0 0 2.012-3.011 9.177 9.177 0 0 0 .707-3.555c0-1.23-.235-2.414-.707-3.55a9.136 9.136 0 0 0-2.012-3.017 9.283 9.283 0 0 0-6.567-2.718Zm0 0"/></clipPath></defs><path d="m42.575 184.034-1.75 1.797v2.812H38.78v-11.03h2.046v5.655l5.454-5.656h2.296l-4.64 4.938 4.922 6.093h-2.391ZM64.336 186.097h-5.5l-1.094 2.546h-2.11l4.954-11.03h2.031l4.969 11.03h-2.14Zm-.672-1.61-2.078-4.828-2.063 4.828ZM75.927 177.612h4.813c1.175 0 2.218.23 3.125.688.914.46 1.625 1.105 2.125 1.937.507.836.765 1.797.765 2.89 0 1.095-.258 2.06-.765 2.891-.5.836-1.211 1.48-2.125 1.938-.907.46-1.95.687-3.125.687h-4.813Zm4.719 9.297c.812 0 1.523-.148 2.14-.453a3.28 3.28 0 0 0 1.407-1.328c.332-.57.5-1.238.5-2 0-.75-.168-1.41-.5-1.985a3.304 3.304 0 0 0-1.406-1.328c-.618-.312-1.329-.468-2.141-.468h-2.672v7.562ZM103.075 188.643l-2.25-3.234a3.809 3.809 0 0 1-.422.016h-2.484v3.218h-2.047v-11.03h4.531c.957 0 1.789.163 2.5.484.707.312 1.25.765 1.625 1.359.375.586.562 1.277.562 2.078 0 .836-.203 1.555-.609 2.156-.398.594-.976 1.04-1.734 1.328l2.547 3.625Zm-.047-7.109c0-.695-.23-1.234-.688-1.61-.46-.382-1.136-.577-2.03-.577h-2.391v4.406h2.39c.895 0 1.57-.192 2.031-.578.458-.383.688-.93.688-1.64ZM119.07 184.753v3.89h-2.047v-3.859l-4.328-7.172h2.188l3.234 5.375 3.25-5.375h2.016ZM142.948 177.612h2.047v11.031h-2.047ZM170.72 177.612c.958 0 1.79.164 2.5.485.708.312 1.25.765 1.626 1.359.375.586.562 1.277.562 2.078 0 .805-.187 1.5-.562 2.094-.375.594-.918 1.047-1.625 1.36-.711.312-1.543.468-2.5.468h-2.485v3.187h-2.047v-11.03Zm-.093 6.125c.894 0 1.57-.187 2.031-.562.457-.383.688-.93.688-1.64 0-.696-.23-1.235-.688-1.61-.46-.383-1.137-.578-2.031-.578h-2.39v4.39ZM184.715 177.612h2.047v9.297h5.766v1.734h-7.813Zm-1.703 6.25 5.422-4.125.844 1.078-5.438 4.125ZM208.226 186.097h-5.5l-1.093 2.546h-2.11l4.953-11.03h2.032l4.968 11.03h-2.14Zm-.671-1.61-2.079-4.828-2.062 4.828ZM224.911 188.8c-1.117 0-2.12-.242-3.015-.735a5.4 5.4 0 0 1-2.11-2.015c-.511-.864-.765-1.836-.765-2.922 0-1.082.254-2.051.765-2.906a5.534 5.534 0 0 1 2.125-2.032c.907-.488 1.91-.734 3.016-.734.906 0 1.727.164 2.469.484.75.313 1.383.766 1.906 1.36l-1.328 1.25c-.805-.864-1.79-1.297-2.953-1.297-.75 0-1.43.168-2.032.5a3.698 3.698 0 0 0-1.406 1.39c-.336.586-.5 1.247-.5 1.985 0 .75.164 1.422.5 2.015a3.685 3.685 0 0 0 1.406 1.375c.602.325 1.282.485 2.032.485 1.164 0 2.148-.43 2.953-1.297l1.328 1.25a5.044 5.044 0 0 1-1.906 1.375c-.75.312-1.578.469-2.485.469ZM246.469 186.925v1.718h-8.266v-11.03h8.047v1.718h-6v2.875h5.312v1.687h-5.312v3.032Zm0 0" fill="#222" fill-opacity=".4"/><path d="m41.879 183.337-1.75 1.797v2.813h-2.047v-11.031h2.047v5.656l5.453-5.656h2.297l-4.64 4.937 4.921 6.094h-2.39ZM63.64 185.4h-5.5l-1.094 2.547h-2.11l4.953-11.031h2.032l4.968 11.03h-2.14Zm-.672-1.61-2.079-4.828-2.062 4.829ZM75.23 176.916h4.813c1.176 0 2.219.23 3.125.687.914.461 1.625 1.106 2.125 1.938.508.836.766 1.796.766 2.89s-.258 2.059-.766 2.89c-.5.837-1.21 1.481-2.125 1.938-.906.461-1.95.688-3.125.688h-4.812Zm4.72 9.296c.812 0 1.523-.148 2.14-.453a3.28 3.28 0 0 0 1.406-1.328c.332-.57.5-1.238.5-2 0-.75-.168-1.41-.5-1.984a3.304 3.304 0 0 0-1.406-1.328c-.617-.313-1.328-.469-2.14-.469h-2.673v7.562ZM102.378 187.947l-2.25-3.235a3.809 3.809 0 0 1-.422.016h-2.484v3.219h-2.047v-11.031h4.531c.957 0 1.79.164 2.5.484.707.312 1.25.766 1.625 1.36.375.585.563 1.277.563 2.077 0 .836-.203 1.555-.61 2.157-.398.593-.976 1.039-1.734 1.328l2.547 3.625Zm-.047-7.11c0-.695-.23-1.234-.687-1.609-.461-.383-1.137-.578-2.031-.578h-2.391v4.406h2.39c.895 0 1.571-.191 2.032-.578.457-.383.687-.93.687-1.64ZM118.373 184.056v3.89h-2.046v-3.859l-4.329-7.171h2.188l3.234 5.375 3.25-5.375h2.016ZM142.251 176.916h2.047v11.03h-2.047ZM170.024 176.916c.957 0 1.79.164 2.5.484.707.312 1.25.766 1.625 1.36.375.585.563 1.277.563 2.077 0 .805-.188 1.5-.563 2.094-.375.594-.918 1.047-1.625 1.36-.71.312-1.543.468-2.5.468h-2.484v3.188h-2.047v-11.031Zm-.094 6.125c.895 0 1.57-.188 2.032-.563.457-.383.687-.93.687-1.64 0-.696-.23-1.235-.687-1.61-.461-.383-1.137-.578-2.032-.578h-2.39v4.39ZM184.019 176.916h2.047v9.296h5.765v1.735h-7.812Zm-1.703 6.25 5.421-4.125.844 1.078-5.437 4.125ZM207.53 185.4h-5.5l-1.094 2.547h-2.11l4.954-11.031h2.031l4.969 11.03h-2.14Zm-.672-1.61-2.078-4.828-2.063 4.829ZM224.215 188.103c-1.117 0-2.121-.242-3.016-.734a5.4 5.4 0 0 1-2.11-2.016c-.511-.863-.765-1.836-.765-2.922 0-1.082.254-2.05.766-2.906a5.534 5.534 0 0 1 2.125-2.031c.906-.489 1.91-.735 3.015-.735.907 0 1.727.164 2.47.485.75.312 1.382.765 1.905 1.36l-1.328 1.25c-.804-.864-1.789-1.298-2.953-1.298-.75 0-1.43.168-2.031.5a3.698 3.698 0 0 0-1.406 1.39c-.336.587-.5 1.247-.5 1.985 0 .75.164 1.422.5 2.016a3.685 3.685 0 0 0 1.406 1.375c.601.324 1.281.484 2.031.484 1.164 0 2.149-.43 2.953-1.297l1.328 1.25a5.044 5.044 0 0 1-1.906 1.375c-.75.313-1.578.47-2.484.47ZM245.772 186.228v1.719h-8.266v-11.031h8.047v1.718h-6v2.875h5.313v1.688h-5.313v3.031ZM43.488 206.158l-.766-1.969h-2.484l-.75 1.97h-.735l2.438-6.204h.61l2.437 6.203Zm-1-2.61-.719-1.921a8.18 8.18 0 0 1-.281-.89c-.063.273-.152.57-.266.89l-.734 1.922ZM50.128 202.924h2.11v3a6.59 6.59 0 0 1-1.017.234c-.335.05-.718.078-1.156.078-.937 0-1.668-.273-2.187-.828-.524-.55-.782-1.332-.782-2.344 0-.632.125-1.191.375-1.672.258-.488.63-.859 1.11-1.109.488-.258 1.062-.39 1.719-.39.656 0 1.27.12 1.843.359l-.28.64c-.563-.238-1.102-.359-1.61-.359-.75 0-1.34.227-1.766.672-.418.45-.625 1.07-.625 1.86 0 .835.203 1.468.61 1.906.406.43 1 .64 1.78.64.438 0 .86-.047 1.266-.14v-1.907h-1.39ZM60.873 206.158h-.813l-3.375-5.187h-.031c.039.617.062 1.171.062 1.671v3.516h-.671v-6.172h.812l3.375 5.156h.031c0-.07-.011-.312-.03-.718a16.935 16.935 0 0 1-.032-.907v-3.53h.672ZM64.904 206.158v-6.172h.719v6.172ZM73.106 206.158h-3.453v-6.172h3.453v.625h-2.734v2h2.562v.625h-2.562v2.281h2.734ZM80.301 204.517c0 .543-.199.965-.594 1.266-.398.305-.933.453-1.609.453-.73 0-1.293-.094-1.687-.281v-.688a4.493 4.493 0 0 0 1.718.344c.47 0 .82-.086 1.063-.265a.904.904 0 0 0 .375-.766.988.988 0 0 0-.125-.516c-.086-.144-.23-.273-.438-.39-.199-.114-.507-.242-.922-.39-.574-.208-.984-.454-1.234-.735-.242-.282-.36-.645-.36-1.094 0-.477.176-.86.532-1.14.363-.282.836-.423 1.422-.423.613 0 1.18.11 1.703.329l-.234.64a3.772 3.772 0 0 0-1.485-.328c-.387 0-.687.086-.906.25-.211.156-.313.383-.313.672 0 .219.036.398.11.531.082.137.219.262.406.375.188.117.477.242.875.375.645.23 1.086.48 1.328.75.25.262.375.606.375 1.031ZM87.636 206.158h-4.25v-.562l3.281-4.97h-3.171v-.64h4.046v.547l-3.28 4.969h3.374ZM95.63 206.158h-.844l-2.25-3-.656.578v2.422h-.719v-6.172h.72v3.063l2.812-3.063h.843l-2.484 2.672ZM102.699 206.158l-.766-1.969H99.45l-.75 1.97h-.734l2.437-6.204h.61l2.437 6.203Zm-1-2.61-.719-1.921a8.18 8.18 0 0 1-.281-.89c-.062.273-.152.57-.266.89l-.734 1.922ZM114.704 204.517c0 .543-.2.965-.594 1.266-.398.305-.933.453-1.61.453-.73 0-1.292-.094-1.687-.281v-.688a4.493 4.493 0 0 0 1.72.344c.468 0 .82-.086 1.062-.265a.904.904 0 0 0 .375-.766.988.988 0 0 0-.125-.516c-.086-.144-.23-.273-.438-.39-.2-.114-.508-.242-.922-.39-.574-.208-.984-.454-1.234-.735-.242-.282-.36-.645-.36-1.094 0-.477.176-.86.532-1.14.363-.282.836-.423 1.422-.423.613 0 1.18.11 1.703.329l-.235.64a3.772 3.772 0 0 0-1.484-.328c-.387 0-.687.086-.906.25-.211.156-.313.383-.313.672 0 .219.035.398.11.531.082.137.218.262.406.375.187.117.476.242.875.375.644.23 1.086.48 1.328.75.25.262.375.606.375 1.031Zm-2.344-5.125c.133-.175.282-.39.438-.64.156-.25.281-.461.375-.64h.86v.077a5.795 5.795 0 0 1-.563.688 5.47 5.47 0 0 1-.641.61h-.469ZM123.695 206.158h-.718l-1.25-4.14a13.189 13.189 0 0 1-.188-.688 8.246 8.246 0 0 1-.125-.5c-.062.367-.164.773-.297 1.219l-1.203 4.11h-.703l-1.656-6.173h.765l.97 3.813c.132.531.233 1.015.296 1.453.082-.52.195-1.024.344-1.516l1.11-3.75h.765l1.156 3.781c.133.438.25.934.344 1.485.05-.406.148-.895.297-1.469l.984-3.797h.75ZM128.636 206.158v-6.172h.719v6.172ZM136.838 206.158h-3.454v-6.172h3.454v.625h-2.735v2h2.563v.625h-2.563v2.281h2.735ZM141.252 203.596v2.562h-.72v-6.172h1.704c.758 0 1.316.149 1.672.438.363.281.547.715.547 1.297 0 .824-.414 1.375-1.235 1.656l1.672 2.781h-.844l-1.5-2.562Zm0-.625h.984c.508 0 .883-.098 1.125-.297.238-.207.36-.508.36-.907 0-.414-.126-.71-.376-.89-.242-.176-.625-.266-1.156-.266h-.937ZM150.874 200.533c-.68 0-1.215.23-1.61.688-.398.449-.593 1.062-.593 1.843 0 .813.187 1.446.562 1.891.383.437.926.656 1.625.656.438 0 .93-.078 1.485-.234v.625c-.438.156-.969.234-1.594.234-.906 0-1.61-.273-2.11-.828-.491-.55-.734-1.332-.734-2.344 0-.632.118-1.191.36-1.672a2.599 2.599 0 0 1 1.031-1.109c.445-.258.973-.39 1.578-.39.645 0 1.211.12 1.703.359l-.297.61a3.3 3.3 0 0 0-1.406-.329ZM159.763 206.158h-4.25v-.562l3.281-4.97h-3.172v-.64h4.047v.547l-3.281 4.969h3.375ZM166.741 206.158h-3.453v-6.172h3.453v.625h-2.734v2h2.562v.625h-2.562v2.281h2.734ZM174.905 206.158h-.844l-2.25-3-.656.578v2.422h-.719v-6.172h.72v3.063l2.812-3.063h.843l-2.484 2.672Zm0 0" fill="#222"/><g clip-path="url(#a)"><g clip-path="url(#b)"><path fill="#5271ff" d="M39.7 145.387h18.57v18.57H39.7Zm0 0"/></g></g><g clip-path="url(#c)"><g clip-path="url(#d)"><path fill="#38b6ff" d="M75.879 145.387h18.57v18.57H75.88Zm0 0"/></g></g><g clip-path="url(#e)"><g clip-path="url(#f)"><path fill="#0cc0df" d="M111.992 145.387h18.567v18.57h-18.567Zm0 0"/></g></g></svg>