<?xml version="1.0" encoding="utf-8"?>
<svg viewBox="69.245 129.047 240.558 97.571" xmlns="http://www.w3.org/2000/svg">
  <defs>
    <clipPath id="24afad55de">
      <path d="M 70.042969 154 L 171 154 L 171 226 L 70.042969 226 Z M 70.042969 154 " clip-rule="nonzero"/>
    </clipPath>
    <clipPath id="9420b363f4">
      <path d="M 87 131.097656 L 171 131.097656 L 171 226 L 87 226 Z M 87 131.097656 " clip-rule="nonzero"/>
    </clipPath>
  </defs>
  <g clip-path="url(#24afad55de)">
    <path fill="#5271ff" d="M 170.371094 223.523438 C 170.371094 223.523438 161.617188 218.753906 146.257812 218 C 139.492188 217.667969 131.433594 218.113281 122.277344 220.101562 C 122.277344 220.101562 72.921875 158.058594 72.921875 158.058594 C 74.167969 157.773438 76.207031 157.359375 78.863281 156.988281 C 80.996094 156.691406 83.523438 156.421875 86.351562 156.269531 C 86.871094 156.242188 87.269531 155.796875 87.242188 155.277344 C 87.214844 154.757812 86.769531 154.363281 86.25 154.390625 C 83.359375 154.546875 80.78125 154.820312 78.605469 155.125 C 73.855469 155.785156 71.015625 156.585938 71.015625 156.585938 C 70.710938 156.671875 70.472656 156.902344 70.375 157.203125 C 70.277344 157.503906 70.335938 157.832031 70.53125 158.078125 L 121.171875 221.734375 C 121.394531 222.015625 121.757812 222.144531 122.113281 222.066406 C 131.316406 220.015625 139.398438 219.546875 146.164062 219.882812 C 161.003906 220.613281 169.476562 225.179688 169.476562 225.179688 C 169.929688 225.425781 170.503906 225.257812 170.75 224.800781 C 171 224.34375 170.828125 223.769531 170.371094 223.523438 Z M 170.371094 223.523438 " fill-opacity="1" fill-rule="evenodd"/>
  </g>
  <g clip-path="url(#9420b363f4)">
    <path fill="#5271ff" d="M 170.820312 223.796875 C 170.820312 223.796875 165.40625 214.675781 151.84375 208.898438 C 145.839844 206.339844 138.230469 204.433594 128.769531 204.285156 C 128.769531 204.285156 95.328125 143.351562 89.816406 133.308594 C 93.339844 133.363281 102.394531 133.808594 112.585938 136.734375 C 119.84375 138.820312 127.675781 142.164062 134.488281 147.535156 C 134.898438 147.859375 135.488281 147.785156 135.8125 147.378906 C 136.132812 146.972656 136.0625 146.378906 135.65625 146.054688 C 128.640625 140.527344 120.578125 137.074219 113.105469 134.925781 C 99.695312 131.070312 88.199219 131.425781 88.199219 131.425781 C 87.871094 131.4375 87.574219 131.617188 87.410156 131.902344 C 87.25 132.1875 87.246094 132.535156 87.402344 132.820312 L 127.386719 205.671875 C 127.546875 205.972656 127.863281 206.15625 128.203125 206.160156 C 137.617188 206.238281 145.175781 208.101562 151.105469 210.628906 C 164.015625 216.128906 169.203125 224.761719 169.203125 224.761719 C 169.472656 225.210938 170.050781 225.355469 170.496094 225.089844 C 170.941406 224.824219 171.089844 224.242188 170.820312 223.796875 Z M 170.820312 223.796875 " fill-opacity="1" fill-rule="evenodd"/>
  </g>
  <path fill="#5271ff" d="M 170.601562 223.664062 C 170.601562 223.664062 163.636719 217.65625 148.8125 214.796875 C 142.609375 213.597656 135.019531 212.953125 125.980469 213.539062 C 125.980469 213.539062 81.585938 145.808594 81.585938 145.808594 C 82.871094 145.714844 84.910156 145.617188 87.523438 145.644531 C 89.675781 145.667969 92.214844 145.777344 95.035156 146.046875 C 95.554688 146.097656 96.015625 145.714844 96.066406 145.195312 C 96.113281 144.679688 95.730469 144.222656 95.214844 144.171875 C 92.332031 143.894531 89.742188 143.785156 87.542969 143.761719 C 82.75 143.710938 79.824219 144.078125 79.824219 144.078125 C 79.5 144.117188 79.21875 144.324219 79.082031 144.617188 C 78.949219 144.914062 78.972656 145.257812 79.152344 145.527344 L 124.707031 215.03125 C 124.890625 215.316406 125.21875 215.480469 125.558594 215.457031 C 134.648438 214.816406 142.261719 215.449219 148.457031 216.644531 C 162.671875 219.386719 169.375 225.09375 169.375 225.09375 C 169.769531 225.433594 170.367188 225.386719 170.703125 224.992188 C 171.042969 224.597656 170.996094 224.003906 170.601562 223.664062 Z M 170.601562 223.664062 " fill-opacity="1" fill-rule="evenodd"/>
  <g fill="#004aad" fill-opacity="1">
    <g transform="translate(127.450088, 174.352563)">
      <g>
        <path d="M 17.796875 0 L 13.1875 0 L 8.171875 -8.0625 L 6.46875 -6.828125 L 6.46875 0 L 2.40625 0 L 2.40625 -19.125 L 6.46875 -19.125 L 6.46875 -10.375 C 6.738281 -10.75 7.003906 -11.125 7.265625 -11.5 C 7.523438 -11.875 7.789062 -12.25 8.0625 -12.625 L 13.234375 -19.125 L 17.75 -19.125 L 11.0625 -10.65625 Z M 17.796875 0 "/>
      </g>
    </g>
  </g>
  <g fill="#004aad" fill-opacity="1">
    <g transform="translate(143.900026, 174.352563)">
      <g>
        <path d="M 14.125 0 L 12.734375 -4.546875 L 5.75 -4.546875 L 4.375 0 L 0 0 L 6.75 -19.203125 L 11.703125 -19.203125 L 18.484375 0 Z M 11.765625 -7.953125 L 10.375 -12.40625 C 10.289062 -12.695312 10.175781 -13.078125 10.03125 -13.546875 C 9.882812 -14.015625 9.738281 -14.488281 9.59375 -14.96875 C 9.445312 -15.457031 9.332031 -15.878906 9.25 -16.234375 C 9.164062 -15.878906 9.046875 -15.4375 8.890625 -14.90625 C 8.734375 -14.382812 8.585938 -13.882812 8.453125 -13.40625 C 8.316406 -12.9375 8.21875 -12.601562 8.15625 -12.40625 L 6.78125 -7.953125 Z M 11.765625 -7.953125 "/>
      </g>
    </g>
  </g>
  <g fill="#004aad" fill-opacity="1">
    <g transform="translate(161.043236, 174.352563)">
      <g>
        <path d="M 18.28125 -9.75 C 18.28125 -7.59375 17.867188 -5.789062 17.046875 -4.34375 C 16.222656 -2.90625 15.03125 -1.820312 13.46875 -1.09375 C 11.90625 -0.363281 10.023438 0 7.828125 0 L 2.40625 0 L 2.40625 -19.125 L 8.40625 -19.125 C 10.414062 -19.125 12.15625 -18.769531 13.625 -18.0625 C 15.101562 -17.351562 16.25 -16.300781 17.0625 -14.90625 C 17.875 -13.519531 18.28125 -11.800781 18.28125 -9.75 Z M 14.0625 -9.640625 C 14.0625 -11.054688 13.851562 -12.21875 13.4375 -13.125 C 13.03125 -14.039062 12.421875 -14.71875 11.609375 -15.15625 C 10.804688 -15.59375 9.8125 -15.8125 8.625 -15.8125 L 6.46875 -15.8125 L 6.46875 -3.34375 L 8.203125 -3.34375 C 10.179688 -3.34375 11.648438 -3.867188 12.609375 -4.921875 C 13.578125 -5.984375 14.0625 -7.554688 14.0625 -9.640625 Z M 14.0625 -9.640625 "/>
      </g>
    </g>
  </g>
  <g fill="#004aad" fill-opacity="1">
    <g transform="translate(179.533748, 174.352563)">
      <g>
        <path d="M 7.984375 -19.125 C 9.710938 -19.125 11.140625 -18.914062 12.265625 -18.5 C 13.398438 -18.082031 14.242188 -17.445312 14.796875 -16.59375 C 15.347656 -15.75 15.625 -14.6875 15.625 -13.40625 C 15.625 -12.53125 15.457031 -11.765625 15.125 -11.109375 C 14.789062 -10.453125 14.351562 -9.894531 13.8125 -9.4375 C 13.269531 -8.988281 12.6875 -8.617188 12.0625 -8.328125 L 17.6875 0 L 13.1875 0 L 8.625 -7.34375 L 6.46875 -7.34375 L 6.46875 0 L 2.40625 0 L 2.40625 -19.125 Z M 7.6875 -15.8125 L 6.46875 -15.8125 L 6.46875 -10.640625 L 7.765625 -10.640625 C 9.109375 -10.640625 10.070312 -10.863281 10.65625 -11.3125 C 11.238281 -11.757812 11.53125 -12.421875 11.53125 -13.296875 C 11.53125 -14.203125 11.21875 -14.847656 10.59375 -15.234375 C 9.96875 -15.617188 9 -15.8125 7.6875 -15.8125 Z M 7.6875 -15.8125 "/>
      </g>
    </g>
  </g>
  <g fill="#004aad" fill-opacity="1">
    <g transform="translate(195.87904, 174.352563)">
      <g>
        <path d="M 8.359375 -11.25 L 12.359375 -19.125 L 16.71875 -19.125 L 10.375 -7.4375 L 10.375 0 L 6.34375 0 L 6.34375 -7.3125 L 0 -19.125 L 4.390625 -19.125 Z M 8.359375 -11.25 "/>
      </g>
    </g>
  </g>
  <g fill="#004aad" fill-opacity="1">
    <g transform="translate(216.875571, 174.352563)">
      <g>
        <path d="M 2.40625 0 L 2.40625 -19.125 L 6.46875 -19.125 L 6.46875 0 Z M 2.40625 0 "/>
      </g>
    </g>
  </g>
  <g fill="#004aad" fill-opacity="1">
    <g transform="translate(230.02375, 174.352563)">
      <g>
        <path d="M 8.515625 -19.125 C 10.984375 -19.125 12.785156 -18.59375 13.921875 -17.53125 C 15.054688 -16.476562 15.625 -15.019531 15.625 -13.15625 C 15.625 -12.320312 15.492188 -11.519531 15.234375 -10.75 C 14.984375 -9.988281 14.570312 -9.3125 14 -8.71875 C 13.4375 -8.132812 12.675781 -7.664062 11.71875 -7.3125 C 10.769531 -6.96875 9.597656 -6.796875 8.203125 -6.796875 L 6.46875 -6.796875 L 6.46875 0 L 2.40625 0 L 2.40625 -19.125 Z M 8.3125 -15.8125 L 6.46875 -15.8125 L 6.46875 -10.125 L 7.796875 -10.125 C 8.554688 -10.125 9.210938 -10.222656 9.765625 -10.421875 C 10.328125 -10.628906 10.757812 -10.945312 11.0625 -11.375 C 11.375 -11.800781 11.53125 -12.347656 11.53125 -13.015625 C 11.53125 -13.960938 11.265625 -14.664062 10.734375 -15.125 C 10.210938 -15.582031 9.40625 -15.8125 8.3125 -15.8125 Z M 8.3125 -15.8125 "/>
      </g>
    </g>
  </g>
  <g fill="#004aad" fill-opacity="1">
    <g transform="translate(245.505729, 174.352563)">
      <g>
        <path d="M 2.40625 0 L 2.40625 -6.4375 L 1.5 -5.90625 L 0.03125 -8.46875 L 2.40625 -9.921875 L 2.40625 -19.125 L 6.46875 -19.125 L 6.46875 -12.375 L 8.328125 -13.53125 L 9.859375 -10.96875 L 6.46875 -8.890625 L 6.46875 -3.34375 L 14.21875 -3.34375 L 14.21875 0 Z M 2.40625 0 "/>
      </g>
    </g>
  </g>
  <g fill="#004aad" fill-opacity="1">
    <g transform="translate(259.30031, 174.352563)">
      <g>
        <path d="M 14.125 0 L 12.734375 -4.546875 L 5.75 -4.546875 L 4.375 0 L 0 0 L 6.75 -19.203125 L 11.703125 -19.203125 L 18.484375 0 Z M 11.765625 -7.953125 L 10.375 -12.40625 C 10.289062 -12.695312 10.175781 -13.078125 10.03125 -13.546875 C 9.882812 -14.015625 9.738281 -14.488281 9.59375 -14.96875 C 9.445312 -15.457031 9.332031 -15.878906 9.25 -16.234375 C 9.164062 -15.878906 9.046875 -15.4375 8.890625 -14.90625 C 8.734375 -14.382812 8.585938 -13.882812 8.453125 -13.40625 C 8.316406 -12.9375 8.21875 -12.601562 8.15625 -12.40625 L 6.78125 -7.953125 Z M 11.765625 -7.953125 "/>
      </g>
    </g>
  </g>
  <g fill="#004aad" fill-opacity="1">
    <g transform="translate(276.443524, 174.352563)">
      <g>
        <path d="M 10.53125 -16.03125 C 9.757812 -16.03125 9.070312 -15.878906 8.46875 -15.578125 C 7.875 -15.273438 7.375 -14.835938 6.96875 -14.265625 C 6.5625 -13.703125 6.253906 -13.019531 6.046875 -12.21875 C 5.835938 -11.414062 5.734375 -10.515625 5.734375 -9.515625 C 5.734375 -8.160156 5.898438 -7.003906 6.234375 -6.046875 C 6.566406 -5.097656 7.085938 -4.367188 7.796875 -3.859375 C 8.503906 -3.359375 9.414062 -3.109375 10.53125 -3.109375 C 11.3125 -3.109375 12.09375 -3.195312 12.875 -3.375 C 13.65625 -3.550781 14.5 -3.800781 15.40625 -4.125 L 15.40625 -0.71875 C 14.5625 -0.375 13.726562 -0.125 12.90625 0.03125 C 12.09375 0.1875 11.175781 0.265625 10.15625 0.265625 C 8.1875 0.265625 6.566406 -0.140625 5.296875 -0.953125 C 4.023438 -1.773438 3.082031 -2.921875 2.46875 -4.390625 C 1.863281 -5.859375 1.5625 -7.570312 1.5625 -9.53125 C 1.5625 -10.976562 1.753906 -12.304688 2.140625 -13.515625 C 2.535156 -14.722656 3.113281 -15.765625 3.875 -16.640625 C 4.632812 -17.523438 5.570312 -18.207031 6.6875 -18.6875 C 7.800781 -19.164062 9.082031 -19.40625 10.53125 -19.40625 C 11.476562 -19.40625 12.429688 -19.285156 13.390625 -19.046875 C 14.347656 -18.804688 15.265625 -18.476562 16.140625 -18.0625 L 14.828125 -14.765625 C 14.109375 -15.097656 13.382812 -15.390625 12.65625 -15.640625 C 11.9375 -15.898438 11.226562 -16.03125 10.53125 -16.03125 Z M 10.53125 -16.03125 "/>
      </g>
    </g>
  </g>
  <g fill="#004aad" fill-opacity="1">
    <g transform="translate(292.174033, 174.352563)">
      <g>
        <path d="M 13.421875 0 L 2.40625 0 L 2.40625 -19.125 L 13.421875 -19.125 L 13.421875 -15.8125 L 6.46875 -15.8125 L 6.46875 -11.609375 L 12.9375 -11.609375 L 12.9375 -8.28125 L 6.46875 -8.28125 L 6.46875 -3.34375 L 13.421875 -3.34375 Z M 13.421875 0 "/>
      </g>
    </g>
  </g>
  <g fill="#004aad" fill-opacity="1">
    <g transform="translate(127.450088, 194.38191)">
      <g>
        <path d="M 8.71875 0 L 7.34375 -3.53125 L 2.8125 -3.53125 L 1.453125 0 L 0 0 L 4.46875 -11.46875 L 5.765625 -11.46875 L 10.203125 0 Z M 6.90625 -4.8125 L 5.625 -8.265625 C 5.59375 -8.359375 5.539062 -8.515625 5.46875 -8.734375 C 5.394531 -8.960938 5.320312 -9.195312 5.25 -9.4375 C 5.1875 -9.675781 5.132812 -9.859375 5.09375 -9.984375 C 5 -9.648438 4.90625 -9.328125 4.8125 -9.015625 C 4.726562 -8.703125 4.65625 -8.453125 4.59375 -8.265625 L 3.296875 -4.8125 Z M 6.90625 -4.8125 "/>
      </g>
    </g>
  </g>
  <g fill="#004aad" fill-opacity="1">
    <g transform="translate(137.67163, 194.38191)">
      <g>
        <path d="M 6.515625 -6.03125 L 10.46875 -6.03125 L 10.46875 -0.4375 C 9.84375 -0.226562 9.210938 -0.078125 8.578125 0.015625 C 7.953125 0.109375 7.242188 0.15625 6.453125 0.15625 C 5.265625 0.15625 4.265625 -0.078125 3.453125 -0.546875 C 2.640625 -1.023438 2.019531 -1.703125 1.59375 -2.578125 C 1.175781 -3.460938 0.96875 -4.507812 0.96875 -5.71875 C 0.96875 -6.894531 1.203125 -7.921875 1.671875 -8.796875 C 2.140625 -9.679688 2.816406 -10.363281 3.703125 -10.84375 C 4.585938 -11.332031 5.648438 -11.578125 6.890625 -11.578125 C 7.535156 -11.578125 8.140625 -11.519531 8.703125 -11.40625 C 9.273438 -11.289062 9.804688 -11.125 10.296875 -10.90625 L 9.765625 -9.65625 C 9.359375 -9.832031 8.898438 -9.984375 8.390625 -10.109375 C 7.878906 -10.242188 7.351562 -10.3125 6.8125 -10.3125 C 5.445312 -10.3125 4.382812 -9.898438 3.625 -9.078125 C 2.863281 -8.253906 2.484375 -7.132812 2.484375 -5.71875 C 2.484375 -4.8125 2.628906 -4.003906 2.921875 -3.296875 C 3.210938 -2.597656 3.671875 -2.054688 4.296875 -1.671875 C 4.929688 -1.285156 5.757812 -1.09375 6.78125 -1.09375 C 7.28125 -1.09375 7.707031 -1.117188 8.0625 -1.171875 C 8.414062 -1.222656 8.738281 -1.285156 9.03125 -1.359375 L 9.03125 -4.75 L 6.515625 -4.75 Z M 6.515625 -6.03125 "/>
      </g>
    </g>
  </g>
  <g fill="#004aad" fill-opacity="1">
    <g transform="translate(149.316828, 194.38191)">
      <g>
        <path d="M 10.609375 0 L 8.921875 0 L 2.8125 -9.484375 L 2.75 -9.484375 C 2.769531 -9.109375 2.796875 -8.644531 2.828125 -8.09375 C 2.859375 -7.539062 2.875 -6.972656 2.875 -6.390625 L 2.875 0 L 1.546875 0 L 1.546875 -11.421875 L 3.21875 -11.421875 L 9.3125 -1.96875 L 9.375 -1.96875 C 9.363281 -2.132812 9.347656 -2.390625 9.328125 -2.734375 C 9.316406 -3.078125 9.300781 -3.445312 9.28125 -3.84375 C 9.269531 -4.25 9.265625 -4.625 9.265625 -4.96875 L 9.265625 -11.421875 L 10.609375 -11.421875 Z M 10.609375 0 "/>
      </g>
    </g>
  </g>
  <g fill="#004aad" fill-opacity="1">
    <g transform="translate(161.473909, 194.38191)">
      <g>
        <path d="M 4.765625 0 L 0.640625 0 L 0.640625 -0.828125 L 1.984375 -1.140625 L 1.984375 -10.265625 L 0.640625 -10.59375 L 0.640625 -11.421875 L 4.765625 -11.421875 L 4.765625 -10.59375 L 3.421875 -10.265625 L 3.421875 -1.140625 L 4.765625 -0.828125 Z M 4.765625 0 "/>
      </g>
    </g>
  </g>
  <g fill="#004aad" fill-opacity="1">
    <g transform="translate(166.896611, 194.38191)">
      <g>
        <path d="M 7.9375 0 L 1.546875 0 L 1.546875 -11.421875 L 7.9375 -11.421875 L 7.9375 -10.15625 L 2.984375 -10.15625 L 2.984375 -6.59375 L 7.640625 -6.59375 L 7.640625 -5.34375 L 2.984375 -5.34375 L 2.984375 -1.265625 L 7.9375 -1.265625 Z M 7.9375 0 "/>
      </g>
    </g>
  </g>
  <g fill="#004aad" fill-opacity="1">
    <g transform="translate(175.790478, 194.38191)">
      <g>
        <path d="M 8.03125 -3.0625 C 8.03125 -2.039062 7.660156 -1.25 6.921875 -0.6875 C 6.191406 -0.125 5.203125 0.15625 3.953125 0.15625 C 3.304688 0.15625 2.710938 0.109375 2.171875 0.015625 C 1.628906 -0.078125 1.175781 -0.210938 0.8125 -0.390625 L 0.8125 -1.765625 C 1.195312 -1.585938 1.675781 -1.429688 2.25 -1.296875 C 2.820312 -1.160156 3.410156 -1.09375 4.015625 -1.09375 C 4.859375 -1.09375 5.5 -1.253906 5.9375 -1.578125 C 6.375 -1.910156 6.59375 -2.359375 6.59375 -2.921875 C 6.59375 -3.296875 6.507812 -3.609375 6.34375 -3.859375 C 6.1875 -4.117188 5.910156 -4.351562 5.515625 -4.5625 C 5.117188 -4.78125 4.582031 -5.019531 3.90625 -5.28125 C 2.925781 -5.632812 2.1875 -6.066406 1.6875 -6.578125 C 1.195312 -7.085938 0.953125 -7.785156 0.953125 -8.671875 C 0.953125 -9.265625 1.109375 -9.78125 1.421875 -10.21875 C 1.734375 -10.65625 2.160156 -10.988281 2.703125 -11.21875 C 3.242188 -11.457031 3.878906 -11.578125 4.609375 -11.578125 C 5.222656 -11.578125 5.789062 -11.519531 6.3125 -11.40625 C 6.84375 -11.289062 7.328125 -11.132812 7.765625 -10.9375 L 7.3125 -9.71875 C 6.914062 -9.882812 6.484375 -10.023438 6.015625 -10.140625 C 5.546875 -10.253906 5.066406 -10.3125 4.578125 -10.3125 C 3.859375 -10.3125 3.316406 -10.160156 2.953125 -9.859375 C 2.597656 -9.554688 2.421875 -9.15625 2.421875 -8.65625 C 2.421875 -8.269531 2.5 -7.945312 2.65625 -7.6875 C 2.8125 -7.4375 3.070312 -7.207031 3.4375 -7 C 3.800781 -6.789062 4.289062 -6.578125 4.90625 -6.359375 C 5.582031 -6.109375 6.148438 -5.84375 6.609375 -5.5625 C 7.078125 -5.28125 7.429688 -4.941406 7.671875 -4.546875 C 7.910156 -4.148438 8.03125 -3.65625 8.03125 -3.0625 Z M 8.03125 -3.0625 "/>
      </g>
    </g>
  </g>
  <g fill="#004aad" fill-opacity="1">
    <g transform="translate(184.572364, 194.38191)">
      <g>
        <path d="M 8.53125 0 L 0.609375 0 L 0.609375 -1.09375 L 6.625 -10.140625 L 0.796875 -10.140625 L 0.796875 -11.421875 L 8.375 -11.421875 L 8.375 -10.34375 L 2.359375 -1.28125 L 8.53125 -1.28125 Z M 8.53125 0 "/>
      </g>
    </g>
  </g>
  <g fill="#004aad" fill-opacity="1">
    <g transform="translate(193.722167, 194.38191)">
      <g>
        <path d="M 9.90625 0 L 8.203125 0 L 4.15625 -5.453125 L 2.984375 -4.4375 L 2.984375 0 L 1.546875 0 L 1.546875 -11.421875 L 2.984375 -11.421875 L 2.984375 -5.796875 C 3.304688 -6.160156 3.632812 -6.519531 3.96875 -6.875 C 4.300781 -7.238281 4.628906 -7.601562 4.953125 -7.96875 L 8.046875 -11.421875 L 9.734375 -11.421875 L 5.203125 -6.453125 Z M 9.90625 0 "/>
      </g>
    </g>
  </g>
  <g fill="#004aad" fill-opacity="1">
    <g transform="translate(203.623789, 194.38191)">
      <g>
        <path d="M 8.71875 0 L 7.34375 -3.53125 L 2.8125 -3.53125 L 1.453125 0 L 0 0 L 4.46875 -11.46875 L 5.765625 -11.46875 L 10.203125 0 Z M 6.90625 -4.8125 L 5.625 -8.265625 C 5.59375 -8.359375 5.539062 -8.515625 5.46875 -8.734375 C 5.394531 -8.960938 5.320312 -9.195312 5.25 -9.4375 C 5.1875 -9.675781 5.132812 -9.859375 5.09375 -9.984375 C 5 -9.648438 4.90625 -9.328125 4.8125 -9.015625 C 4.726562 -8.703125 4.65625 -8.453125 4.59375 -8.265625 L 3.296875 -4.8125 Z M 6.90625 -4.8125 "/>
      </g>
    </g>
  </g>
  <g fill="#004aad" fill-opacity="1">
    <g transform="translate(218.244279, 194.38191)">
      <g>
        <path d="M 8.03125 -3.0625 C 8.03125 -2.039062 7.660156 -1.25 6.921875 -0.6875 C 6.191406 -0.125 5.203125 0.15625 3.953125 0.15625 C 3.304688 0.15625 2.710938 0.109375 2.171875 0.015625 C 1.628906 -0.078125 1.175781 -0.210938 0.8125 -0.390625 L 0.8125 -1.765625 C 1.195312 -1.585938 1.675781 -1.429688 2.25 -1.296875 C 2.820312 -1.160156 3.410156 -1.09375 4.015625 -1.09375 C 4.859375 -1.09375 5.5 -1.253906 5.9375 -1.578125 C 6.375 -1.910156 6.59375 -2.359375 6.59375 -2.921875 C 6.59375 -3.296875 6.507812 -3.609375 6.34375 -3.859375 C 6.1875 -4.117188 5.910156 -4.351562 5.515625 -4.5625 C 5.117188 -4.78125 4.582031 -5.019531 3.90625 -5.28125 C 2.925781 -5.632812 2.1875 -6.066406 1.6875 -6.578125 C 1.195312 -7.085938 0.953125 -7.785156 0.953125 -8.671875 C 0.953125 -9.265625 1.109375 -9.78125 1.421875 -10.21875 C 1.734375 -10.65625 2.160156 -10.988281 2.703125 -11.21875 C 3.242188 -11.457031 3.878906 -11.578125 4.609375 -11.578125 C 5.222656 -11.578125 5.789062 -11.519531 6.3125 -11.40625 C 6.84375 -11.289062 7.328125 -11.132812 7.765625 -10.9375 L 7.3125 -9.71875 C 6.914062 -9.882812 6.484375 -10.023438 6.015625 -10.140625 C 5.546875 -10.253906 5.066406 -10.3125 4.578125 -10.3125 C 3.859375 -10.3125 3.316406 -10.160156 2.953125 -9.859375 C 2.597656 -9.554688 2.421875 -9.15625 2.421875 -8.65625 C 2.421875 -8.269531 2.5 -7.945312 2.65625 -7.6875 C 2.8125 -7.4375 3.070312 -7.207031 3.4375 -7 C 3.800781 -6.789062 4.289062 -6.578125 4.90625 -6.359375 C 5.582031 -6.109375 6.148438 -5.84375 6.609375 -5.5625 C 7.078125 -5.28125 7.429688 -4.941406 7.671875 -4.546875 C 7.910156 -4.148438 8.03125 -3.65625 8.03125 -3.0625 Z M 6.8125 -15.09375 L 6.8125 -14.9375 C 6.664062 -14.75 6.460938 -14.5 6.203125 -14.1875 C 5.941406 -13.882812 5.660156 -13.582031 5.359375 -13.28125 C 5.054688 -12.976562 4.773438 -12.734375 4.515625 -12.546875 L 3.59375 -12.546875 L 3.59375 -12.734375 C 3.738281 -12.921875 3.90625 -13.15625 4.09375 -13.4375 C 4.289062 -13.726562 4.476562 -14.019531 4.65625 -14.3125 C 4.84375 -14.601562 4.992188 -14.863281 5.109375 -15.09375 Z M 6.8125 -15.09375 "/>
      </g>
    </g>
  </g>
  <g fill="#004aad" fill-opacity="1">
    <g transform="translate(227.026165, 194.38191)">
      <g>
        <path d="M 14.671875 -11.421875 L 11.625 0 L 10.171875 0 L 7.953125 -7.484375 C 7.859375 -7.785156 7.769531 -8.09375 7.6875 -8.40625 C 7.601562 -8.71875 7.53125 -8.992188 7.46875 -9.234375 C 7.414062 -9.472656 7.382812 -9.644531 7.375 -9.75 C 7.363281 -9.601562 7.304688 -9.300781 7.203125 -8.84375 C 7.097656 -8.394531 6.972656 -7.925781 6.828125 -7.4375 L 4.671875 0 L 3.21875 0 L 0.1875 -11.421875 L 1.703125 -11.421875 L 3.46875 -4.453125 C 3.59375 -3.960938 3.703125 -3.488281 3.796875 -3.03125 C 3.890625 -2.570312 3.960938 -2.140625 4.015625 -1.734375 C 4.066406 -2.148438 4.144531 -2.601562 4.25 -3.09375 C 4.363281 -3.582031 4.488281 -4.0625 4.625 -4.53125 L 6.640625 -11.421875 L 8.125 -11.421875 L 10.21875 -4.484375 C 10.375 -3.992188 10.503906 -3.5 10.609375 -3 C 10.710938 -2.507812 10.789062 -2.085938 10.84375 -1.734375 C 10.882812 -2.117188 10.957031 -2.546875 11.0625 -3.015625 C 11.164062 -3.484375 11.28125 -3.96875 11.40625 -4.46875 L 13.171875 -11.421875 Z M 14.671875 -11.421875 "/>
      </g>
    </g>
  </g>
  <g fill="#004aad" fill-opacity="1">
    <g transform="translate(241.902591, 194.38191)">
      <g>
        <path d="M 4.765625 0 L 0.640625 0 L 0.640625 -0.828125 L 1.984375 -1.140625 L 1.984375 -10.265625 L 0.640625 -10.59375 L 0.640625 -11.421875 L 4.765625 -11.421875 L 4.765625 -10.59375 L 3.421875 -10.265625 L 3.421875 -1.140625 L 4.765625 -0.828125 Z M 4.765625 0 "/>
      </g>
    </g>
  </g>
  <g fill="#004aad" fill-opacity="1">
    <g transform="translate(247.325294, 194.38191)">
      <g>
        <path d="M 7.9375 0 L 1.546875 0 L 1.546875 -11.421875 L 7.9375 -11.421875 L 7.9375 -10.15625 L 2.984375 -10.15625 L 2.984375 -6.59375 L 7.640625 -6.59375 L 7.640625 -5.34375 L 2.984375 -5.34375 L 2.984375 -1.265625 L 7.9375 -1.265625 Z M 7.9375 0 "/>
      </g>
    </g>
  </g>
  <g fill="#004aad" fill-opacity="1">
    <g transform="translate(256.219161, 194.38191)">
      <g>
        <path d="M 4.703125 -11.421875 C 6.117188 -11.421875 7.164062 -11.148438 7.84375 -10.609375 C 8.519531 -10.078125 8.859375 -9.265625 8.859375 -8.171875 C 8.859375 -7.566406 8.742188 -7.0625 8.515625 -6.65625 C 8.296875 -6.25 8.015625 -5.921875 7.671875 -5.671875 C 7.328125 -5.429688 6.960938 -5.25 6.578125 -5.125 L 9.71875 0 L 8.03125 0 L 5.265625 -4.71875 L 2.984375 -4.71875 L 2.984375 0 L 1.546875 0 L 1.546875 -11.421875 Z M 4.625 -10.171875 L 2.984375 -10.171875 L 2.984375 -5.9375 L 4.703125 -5.9375 C 5.628906 -5.9375 6.304688 -6.117188 6.734375 -6.484375 C 7.160156 -6.859375 7.375 -7.398438 7.375 -8.109375 C 7.375 -8.859375 7.148438 -9.390625 6.703125 -9.703125 C 6.253906 -10.015625 5.5625 -10.171875 4.625 -10.171875 Z M 4.625 -10.171875 "/>
      </g>
    </g>
  </g>
  <g fill="#004aad" fill-opacity="1">
    <g transform="translate(266.168768, 194.38191)">
      <g>
        <path d="M 6.453125 -10.3125 C 5.222656 -10.3125 4.253906 -9.898438 3.546875 -9.078125 C 2.847656 -8.265625 2.5 -7.144531 2.5 -5.71875 C 2.5 -4.289062 2.828125 -3.164062 3.484375 -2.34375 C 4.140625 -1.519531 5.125 -1.109375 6.4375 -1.109375 C 6.925781 -1.109375 7.394531 -1.148438 7.84375 -1.234375 C 8.289062 -1.316406 8.734375 -1.421875 9.171875 -1.546875 L 9.171875 -0.296875 C 8.742188 -0.140625 8.300781 -0.0234375 7.84375 0.046875 C 7.394531 0.117188 6.851562 0.15625 6.21875 0.15625 C 5.0625 0.15625 4.09375 -0.0820312 3.3125 -0.5625 C 2.53125 -1.039062 1.941406 -1.722656 1.546875 -2.609375 C 1.160156 -3.492188 0.96875 -4.535156 0.96875 -5.734375 C 0.96875 -6.878906 1.175781 -7.890625 1.59375 -8.765625 C 2.019531 -9.648438 2.644531 -10.335938 3.46875 -10.828125 C 4.289062 -11.328125 5.289062 -11.578125 6.46875 -11.578125 C 7.664062 -11.578125 8.710938 -11.351562 9.609375 -10.90625 L 9.046875 -9.703125 C 8.691406 -9.859375 8.296875 -10 7.859375 -10.125 C 7.429688 -10.25 6.960938 -10.3125 6.453125 -10.3125 Z M 6.453125 -10.3125 "/>
      </g>
    </g>
  </g>
  <g fill="#004aad" fill-opacity="1">
    <g transform="translate(276.278341, 194.38191)">
      <g>
        <path d="M 8.53125 0 L 0.609375 0 L 0.609375 -1.09375 L 6.625 -10.140625 L 0.796875 -10.140625 L 0.796875 -11.421875 L 8.375 -11.421875 L 8.375 -10.34375 L 2.359375 -1.28125 L 8.53125 -1.28125 Z M 8.53125 0 "/>
      </g>
    </g>
  </g>
  <g fill="#004aad" fill-opacity="1">
    <g transform="translate(285.428143, 194.38191)">
      <g>
        <path d="M 7.9375 0 L 1.546875 0 L 1.546875 -11.421875 L 7.9375 -11.421875 L 7.9375 -10.15625 L 2.984375 -10.15625 L 2.984375 -6.59375 L 7.640625 -6.59375 L 7.640625 -5.34375 L 2.984375 -5.34375 L 2.984375 -1.265625 L 7.9375 -1.265625 Z M 7.9375 0 "/>
      </g>
    </g>
  </g>
  <g fill="#004aad" fill-opacity="1">
    <g transform="translate(294.32201, 194.38191)">
      <g>
        <path d="M 9.90625 0 L 8.203125 0 L 4.15625 -5.453125 L 2.984375 -4.4375 L 2.984375 0 L 1.546875 0 L 1.546875 -11.421875 L 2.984375 -11.421875 L 2.984375 -5.796875 C 3.304688 -6.160156 3.632812 -6.519531 3.96875 -6.875 C 4.300781 -7.238281 4.628906 -7.601562 4.953125 -7.96875 L 8.046875 -11.421875 L 9.734375 -11.421875 L 5.203125 -6.453125 Z M 9.90625 0 "/>
      </g>
    </g>
  </g>
</svg>