<svg xmlns="http://www.w3.org/2000/svg" xmlns:xlink="http://www.w3.org/1999/xlink" id="visual" viewBox="0 0 425 600" width="425" height="600" version="1.1"><path d="M0 154L10.2 152.7C20.3 151.3 40.7 148.7 60.8 148.3C81 148 101 150 121.2 151.2C141.3 152.3 161.7 152.7 182 147.8C202.3 143 222.7 133 243 130.7C263.3 128.3 283.7 133.7 303.8 137.2C324 140.7 344 142.3 364.2 145.8C384.3 149.3 404.7 154.7 414.8 157.3L425 160L425 0L414.8 0C404.7 0 384.3 0 364.2 0C344 0 324 0 303.8 0C283.7 0 263.3 0 243 0C222.7 0 202.3 0 182 0C161.7 0 141.3 0 121.2 0C101 0 81 0 60.8 0C40.7 0 20.3 0 10.2 0L0 0Z" fill="#0B60A8" stroke-linecap="round" stroke-linejoin="miter"/></svg>