<svg xmlns="http://www.w3.org/2000/svg" width="433" viewBox="0 0 324.75 66.75" height="89" version="1.0"><defs><g/><clipPath id="d1c2588e55"><path d="M 0.480469 0 L 324.019531 0 L 324.019531 66.5 L 0.480469 66.5 Z M 0.480469 0 " clip-rule="nonzero"/></clipPath><clipPath id="6e0aa0e3ad"><path d="M 8.648438 0.636719 L 27.148438 0.636719 L 27.148438 19.136719 L 8.648438 19.136719 Z M 8.648438 0.636719 " clip-rule="nonzero"/></clipPath><clipPath id="3c121b77fb"><path d="M 17.898438 0.636719 C 16.671875 0.636719 15.492188 0.871094 14.359375 1.339844 C 13.226562 1.808594 12.226562 2.476562 11.359375 3.34375 C 10.492188 4.210938 9.824219 5.210938 9.355469 6.34375 C 8.882812 7.480469 8.648438 8.660156 8.648438 9.886719 C 8.648438 11.113281 8.882812 12.292969 9.355469 13.425781 C 9.824219 14.558594 10.492188 15.558594 11.359375 16.425781 C 12.226562 17.292969 13.226562 17.960938 14.359375 18.429688 C 15.492188 18.902344 16.671875 19.136719 17.898438 19.136719 C 19.125 19.136719 20.304688 18.902344 21.4375 18.429688 C 22.574219 17.960938 23.574219 17.292969 24.441406 16.425781 C 25.308594 15.558594 25.976562 14.558594 26.445312 13.425781 C 26.914062 12.292969 27.148438 11.113281 27.148438 9.886719 C 27.148438 8.660156 26.914062 7.480469 26.445312 6.34375 C 25.976562 5.210938 25.308594 4.210938 24.441406 3.34375 C 23.574219 2.476562 22.574219 1.808594 21.4375 1.339844 C 20.304688 0.871094 19.125 0.636719 17.898438 0.636719 Z M 17.898438 0.636719 " clip-rule="nonzero"/></clipPath><clipPath id="b4ff9e5999"><path d="M 44.695312 0.636719 L 63.195312 0.636719 L 63.195312 19.136719 L 44.695312 19.136719 Z M 44.695312 0.636719 " clip-rule="nonzero"/></clipPath><clipPath id="64219cd85f"><path d="M 53.945312 0.636719 C 52.71875 0.636719 51.539062 0.871094 50.40625 1.339844 C 49.273438 1.808594 48.269531 2.476562 47.402344 3.34375 C 46.535156 4.210938 45.867188 5.210938 45.398438 6.34375 C 44.929688 7.480469 44.695312 8.660156 44.695312 9.886719 C 44.695312 11.113281 44.929688 12.292969 45.398438 13.425781 C 45.867188 14.558594 46.535156 15.558594 47.402344 16.425781 C 48.269531 17.292969 49.273438 17.960938 50.40625 18.429688 C 51.539062 18.902344 52.71875 19.136719 53.945312 19.136719 C 55.171875 19.136719 56.351562 18.902344 57.484375 18.429688 C 58.617188 17.960938 59.617188 17.292969 60.484375 16.425781 C 61.351562 15.558594 62.019531 14.558594 62.492188 13.425781 C 62.960938 12.292969 63.195312 11.113281 63.195312 9.886719 C 63.195312 8.660156 62.960938 7.480469 62.492188 6.34375 C 62.019531 5.210938 61.351562 4.210938 60.484375 3.34375 C 59.617188 2.476562 58.617188 1.808594 57.484375 1.339844 C 56.351562 0.871094 55.171875 0.636719 53.945312 0.636719 Z M 53.945312 0.636719 " clip-rule="nonzero"/></clipPath><clipPath id="1622db8b1f"><path d="M 80.671875 0.636719 L 99.171875 0.636719 L 99.171875 19.136719 L 80.671875 19.136719 Z M 80.671875 0.636719 " clip-rule="nonzero"/></clipPath><clipPath id="e799935998"><path d="M 89.921875 0.636719 C 88.695312 0.636719 87.515625 0.871094 86.382812 1.339844 C 85.25 1.808594 84.25 2.476562 83.382812 3.34375 C 82.511719 4.210938 81.84375 5.210938 81.375 6.34375 C 80.90625 7.480469 80.671875 8.660156 80.671875 9.886719 C 80.671875 11.113281 80.90625 12.292969 81.375 13.425781 C 81.84375 14.558594 82.511719 15.558594 83.382812 16.425781 C 84.25 17.292969 85.25 17.960938 86.382812 18.429688 C 87.515625 18.902344 88.695312 19.136719 89.921875 19.136719 C 91.148438 19.136719 92.328125 18.902344 93.460938 18.429688 C 94.59375 17.960938 95.59375 17.292969 96.460938 16.425781 C 97.328125 15.558594 98 14.558594 98.46875 13.425781 C 98.9375 12.292969 99.171875 11.113281 99.171875 9.886719 C 99.171875 8.660156 98.9375 7.480469 98.46875 6.34375 C 98 5.210938 97.328125 4.210938 96.460938 3.34375 C 95.59375 2.476562 94.59375 1.808594 93.460938 1.339844 C 92.328125 0.871094 91.148438 0.636719 89.921875 0.636719 Z M 89.921875 0.636719 " clip-rule="nonzero"/></clipPath></defs><g clip-path="url(#d1c2588e55)"><path fill="#ffffff" d="M 0.480469 0 L 324.019531 0 L 324.019531 66.5 L 0.480469 66.5 Z M 0.480469 0 " fill-opacity="1" fill-rule="nonzero"/></g><g fill="#222222" fill-opacity="0.4"><g transform="translate(6.253889, 43.72967)"><g><path d="M 5.265625 -4.59375 L 3.515625 -2.8125 L 3.515625 0 L 1.46875 0 L 1.46875 -11 L 3.515625 -11 L 3.515625 -5.359375 L 8.953125 -11 L 11.25 -11 L 6.625 -6.078125 L 11.53125 0 L 9.140625 0 Z M 5.265625 -4.59375 "/></g></g></g><g fill="#222222" fill-opacity="0.4"><g transform="translate(24.601979, 43.72967)"><g><path d="M 8.609375 -2.546875 L 3.109375 -2.546875 L 2.03125 0 L -0.078125 0 L 4.875 -11 L 6.875 -11 L 11.84375 0 L 9.703125 0 Z M 7.9375 -4.140625 L 5.859375 -8.953125 L 3.796875 -4.140625 Z M 7.9375 -4.140625 "/></g></g></g><g fill="#222222" fill-opacity="0.4"><g transform="translate(43.263893, 43.72967)"><g><path d="M 1.46875 -11 L 6.28125 -11 C 7.457031 -11 8.5 -10.769531 9.40625 -10.3125 C 10.3125 -9.851562 11.015625 -9.207031 11.515625 -8.375 C 12.023438 -7.539062 12.28125 -6.582031 12.28125 -5.5 C 12.28125 -4.40625 12.023438 -3.441406 11.515625 -2.609375 C 11.015625 -1.773438 10.3125 -1.128906 9.40625 -0.671875 C 8.5 -0.222656 7.457031 0 6.28125 0 L 1.46875 0 Z M 6.1875 -1.734375 C 6.988281 -1.734375 7.695312 -1.882812 8.3125 -2.1875 C 8.925781 -2.5 9.394531 -2.9375 9.71875 -3.5 C 10.050781 -4.070312 10.21875 -4.738281 10.21875 -5.5 C 10.21875 -6.25 10.050781 -6.910156 9.71875 -7.484375 C 9.394531 -8.054688 8.925781 -8.492188 8.3125 -8.796875 C 7.695312 -9.109375 6.988281 -9.265625 6.1875 -9.265625 L 3.515625 -9.265625 L 3.515625 -1.734375 Z M 6.1875 -1.734375 "/></g></g></g><g fill="#222222" fill-opacity="0.4"><g transform="translate(63.134036, 43.72967)"><g><path d="M 8.671875 0 L 6.421875 -3.21875 C 6.328125 -3.207031 6.1875 -3.203125 6 -3.203125 L 3.515625 -3.203125 L 3.515625 0 L 1.46875 0 L 1.46875 -11 L 6 -11 C 6.945312 -11 7.773438 -10.835938 8.484375 -10.515625 C 9.191406 -10.203125 9.734375 -9.753906 10.109375 -9.171875 C 10.484375 -8.585938 10.671875 -7.890625 10.671875 -7.078125 C 10.671875 -6.253906 10.46875 -5.539062 10.0625 -4.9375 C 9.664062 -4.34375 9.09375 -3.898438 8.34375 -3.609375 L 10.859375 0 Z M 8.625 -7.078125 C 8.625 -7.785156 8.390625 -8.328125 7.921875 -8.703125 C 7.460938 -9.078125 6.789062 -9.265625 5.90625 -9.265625 L 3.515625 -9.265625 L 3.515625 -4.890625 L 5.90625 -4.890625 C 6.789062 -4.890625 7.460938 -5.078125 7.921875 -5.453125 C 8.390625 -5.835938 8.625 -6.378906 8.625 -7.078125 Z M 8.625 -7.078125 "/></g></g></g><g fill="#222222" fill-opacity="0.4"><g transform="translate(81.513514, 43.72967)"><g><path d="M 6.21875 -3.875 L 6.21875 0 L 4.171875 0 L 4.171875 -3.84375 L -0.140625 -11 L 2.046875 -11 L 5.265625 -5.640625 L 8.515625 -11 L 10.515625 -11 Z M 6.21875 -3.875 "/></g></g></g><g fill="#222222" fill-opacity="0.4"><g transform="translate(98.794606, 43.72967)"><g/></g></g><g fill="#222222" fill-opacity="0.4"><g transform="translate(110.034603, 43.72967)"><g><path d="M 1.46875 -11 L 3.515625 -11 L 3.515625 0 L 1.46875 0 Z M 1.46875 -11 "/></g></g></g><g fill="#222222" fill-opacity="0.4"><g transform="translate(121.949329, 43.72967)"><g/></g></g><g fill="#222222" fill-opacity="0.4"><g transform="translate(133.189331, 43.72967)"><g><path d="M 6 -11 C 6.945312 -11 7.773438 -10.835938 8.484375 -10.515625 C 9.191406 -10.203125 9.734375 -9.753906 10.109375 -9.171875 C 10.484375 -8.585938 10.671875 -7.890625 10.671875 -7.078125 C 10.671875 -6.285156 10.484375 -5.59375 10.109375 -5 C 9.734375 -4.40625 9.191406 -3.953125 8.484375 -3.640625 C 7.773438 -3.328125 6.945312 -3.171875 6 -3.171875 L 3.515625 -3.171875 L 3.515625 0 L 1.46875 0 L 1.46875 -11 Z M 5.90625 -4.90625 C 6.789062 -4.90625 7.460938 -5.09375 7.921875 -5.46875 C 8.390625 -5.84375 8.625 -6.378906 8.625 -7.078125 C 8.625 -7.785156 8.390625 -8.328125 7.921875 -8.703125 C 7.460938 -9.078125 6.789062 -9.265625 5.90625 -9.265625 L 3.515625 -9.265625 L 3.515625 -4.90625 Z M 5.90625 -4.90625 "/></g></g></g><g fill="#222222" fill-opacity="0.4"><g transform="translate(151.490352, 43.72967)"><g><path d="M 1.625 -11 L 3.671875 -11 L 3.671875 -1.734375 L 9.421875 -1.734375 L 9.421875 0 L 1.625 0 Z M -0.0625 -4.78125 L 5.359375 -8.875 L 6.1875 -7.8125 L 0.765625 -3.6875 Z M -0.0625 -4.78125 "/></g></g></g><g fill="#222222" fill-opacity="0.4"><g transform="translate(167.955509, 43.72967)"><g><path d="M 8.609375 -2.546875 L 3.109375 -2.546875 L 2.03125 0 L -0.078125 0 L 4.875 -11 L 6.875 -11 L 11.84375 0 L 9.703125 0 Z M 7.9375 -4.140625 L 5.859375 -8.953125 L 3.796875 -4.140625 Z M 7.9375 -4.140625 "/></g></g></g><g fill="#222222" fill-opacity="0.4"><g transform="translate(186.617418, 43.72967)"><g><path d="M 6.5625 0.15625 C 5.457031 0.15625 4.457031 -0.0820312 3.5625 -0.5625 C 2.664062 -1.050781 1.960938 -1.722656 1.453125 -2.578125 C 0.941406 -3.441406 0.6875 -4.414062 0.6875 -5.5 C 0.6875 -6.570312 0.941406 -7.535156 1.453125 -8.390625 C 1.972656 -9.253906 2.679688 -9.929688 3.578125 -10.421875 C 4.472656 -10.910156 5.472656 -11.15625 6.578125 -11.15625 C 7.484375 -11.15625 8.304688 -10.992188 9.046875 -10.671875 C 9.785156 -10.359375 10.410156 -9.90625 10.921875 -9.3125 L 9.609375 -8.078125 C 8.816406 -8.929688 7.835938 -9.359375 6.671875 -9.359375 C 5.921875 -9.359375 5.242188 -9.191406 4.640625 -8.859375 C 4.046875 -8.535156 3.582031 -8.078125 3.25 -7.484375 C 2.914062 -6.898438 2.75 -6.238281 2.75 -5.5 C 2.75 -4.75 2.914062 -4.082031 3.25 -3.5 C 3.582031 -2.914062 4.046875 -2.457031 4.640625 -2.125 C 5.242188 -1.800781 5.921875 -1.640625 6.671875 -1.640625 C 7.835938 -1.640625 8.816406 -2.070312 9.609375 -2.9375 L 10.921875 -1.6875 C 10.410156 -1.082031 9.78125 -0.625 9.03125 -0.3125 C 8.289062 0 7.46875 0.15625 6.5625 0.15625 Z M 6.5625 0.15625 "/></g></g></g><g fill="#222222" fill-opacity="0.4"><g transform="translate(204.934137, 43.72967)"><g><path d="M 9.71875 -1.71875 L 9.71875 0 L 1.46875 0 L 1.46875 -11 L 9.5 -11 L 9.5 -9.28125 L 3.515625 -9.28125 L 3.515625 -6.421875 L 8.828125 -6.421875 L 8.828125 -4.75 L 3.515625 -4.75 L 3.515625 -1.71875 Z M 9.71875 -1.71875 "/></g></g></g><g fill="#222222" fill-opacity="1"><g transform="translate(5.559916, 43.035698)"><g><path d="M 5.265625 -4.59375 L 3.515625 -2.8125 L 3.515625 0 L 1.46875 0 L 1.46875 -11 L 3.515625 -11 L 3.515625 -5.359375 L 8.953125 -11 L 11.25 -11 L 6.625 -6.078125 L 11.53125 0 L 9.140625 0 Z M 5.265625 -4.59375 "/></g></g></g><g fill="#222222" fill-opacity="1"><g transform="translate(23.908007, 43.035698)"><g><path d="M 8.609375 -2.546875 L 3.109375 -2.546875 L 2.03125 0 L -0.078125 0 L 4.875 -11 L 6.875 -11 L 11.84375 0 L 9.703125 0 Z M 7.9375 -4.140625 L 5.859375 -8.953125 L 3.796875 -4.140625 Z M 7.9375 -4.140625 "/></g></g></g><g fill="#222222" fill-opacity="1"><g transform="translate(42.56992, 43.035698)"><g><path d="M 1.46875 -11 L 6.28125 -11 C 7.457031 -11 8.5 -10.769531 9.40625 -10.3125 C 10.3125 -9.851562 11.015625 -9.207031 11.515625 -8.375 C 12.023438 -7.539062 12.28125 -6.582031 12.28125 -5.5 C 12.28125 -4.40625 12.023438 -3.441406 11.515625 -2.609375 C 11.015625 -1.773438 10.3125 -1.128906 9.40625 -0.671875 C 8.5 -0.222656 7.457031 0 6.28125 0 L 1.46875 0 Z M 6.1875 -1.734375 C 6.988281 -1.734375 7.695312 -1.882812 8.3125 -2.1875 C 8.925781 -2.5 9.394531 -2.9375 9.71875 -3.5 C 10.050781 -4.070312 10.21875 -4.738281 10.21875 -5.5 C 10.21875 -6.25 10.050781 -6.910156 9.71875 -7.484375 C 9.394531 -8.054688 8.925781 -8.492188 8.3125 -8.796875 C 7.695312 -9.109375 6.988281 -9.265625 6.1875 -9.265625 L 3.515625 -9.265625 L 3.515625 -1.734375 Z M 6.1875 -1.734375 "/></g></g></g><g fill="#222222" fill-opacity="1"><g transform="translate(62.440063, 43.035698)"><g><path d="M 8.671875 0 L 6.421875 -3.21875 C 6.328125 -3.207031 6.1875 -3.203125 6 -3.203125 L 3.515625 -3.203125 L 3.515625 0 L 1.46875 0 L 1.46875 -11 L 6 -11 C 6.945312 -11 7.773438 -10.835938 8.484375 -10.515625 C 9.191406 -10.203125 9.734375 -9.753906 10.109375 -9.171875 C 10.484375 -8.585938 10.671875 -7.890625 10.671875 -7.078125 C 10.671875 -6.253906 10.46875 -5.539062 10.0625 -4.9375 C 9.664062 -4.34375 9.09375 -3.898438 8.34375 -3.609375 L 10.859375 0 Z M 8.625 -7.078125 C 8.625 -7.785156 8.390625 -8.328125 7.921875 -8.703125 C 7.460938 -9.078125 6.789062 -9.265625 5.90625 -9.265625 L 3.515625 -9.265625 L 3.515625 -4.890625 L 5.90625 -4.890625 C 6.789062 -4.890625 7.460938 -5.078125 7.921875 -5.453125 C 8.390625 -5.835938 8.625 -6.378906 8.625 -7.078125 Z M 8.625 -7.078125 "/></g></g></g><g fill="#222222" fill-opacity="1"><g transform="translate(80.819541, 43.035698)"><g><path d="M 6.21875 -3.875 L 6.21875 0 L 4.171875 0 L 4.171875 -3.84375 L -0.140625 -11 L 2.046875 -11 L 5.265625 -5.640625 L 8.515625 -11 L 10.515625 -11 Z M 6.21875 -3.875 "/></g></g></g><g fill="#222222" fill-opacity="1"><g transform="translate(98.100633, 43.035698)"><g/></g></g><g fill="#222222" fill-opacity="1"><g transform="translate(109.34063, 43.035698)"><g><path d="M 1.46875 -11 L 3.515625 -11 L 3.515625 0 L 1.46875 0 Z M 1.46875 -11 "/></g></g></g><g fill="#222222" fill-opacity="1"><g transform="translate(121.255356, 43.035698)"><g/></g></g><g fill="#222222" fill-opacity="1"><g transform="translate(132.495359, 43.035698)"><g><path d="M 6 -11 C 6.945312 -11 7.773438 -10.835938 8.484375 -10.515625 C 9.191406 -10.203125 9.734375 -9.753906 10.109375 -9.171875 C 10.484375 -8.585938 10.671875 -7.890625 10.671875 -7.078125 C 10.671875 -6.285156 10.484375 -5.59375 10.109375 -5 C 9.734375 -4.40625 9.191406 -3.953125 8.484375 -3.640625 C 7.773438 -3.328125 6.945312 -3.171875 6 -3.171875 L 3.515625 -3.171875 L 3.515625 0 L 1.46875 0 L 1.46875 -11 Z M 5.90625 -4.90625 C 6.789062 -4.90625 7.460938 -5.09375 7.921875 -5.46875 C 8.390625 -5.84375 8.625 -6.378906 8.625 -7.078125 C 8.625 -7.785156 8.390625 -8.328125 7.921875 -8.703125 C 7.460938 -9.078125 6.789062 -9.265625 5.90625 -9.265625 L 3.515625 -9.265625 L 3.515625 -4.90625 Z M 5.90625 -4.90625 "/></g></g></g><g fill="#222222" fill-opacity="1"><g transform="translate(150.796379, 43.035698)"><g><path d="M 1.625 -11 L 3.671875 -11 L 3.671875 -1.734375 L 9.421875 -1.734375 L 9.421875 0 L 1.625 0 Z M -0.0625 -4.78125 L 5.359375 -8.875 L 6.1875 -7.8125 L 0.765625 -3.6875 Z M -0.0625 -4.78125 "/></g></g></g><g fill="#222222" fill-opacity="1"><g transform="translate(167.261536, 43.035698)"><g><path d="M 8.609375 -2.546875 L 3.109375 -2.546875 L 2.03125 0 L -0.078125 0 L 4.875 -11 L 6.875 -11 L 11.84375 0 L 9.703125 0 Z M 7.9375 -4.140625 L 5.859375 -8.953125 L 3.796875 -4.140625 Z M 7.9375 -4.140625 "/></g></g></g><g fill="#222222" fill-opacity="1"><g transform="translate(185.923445, 43.035698)"><g><path d="M 6.5625 0.15625 C 5.457031 0.15625 4.457031 -0.0820312 3.5625 -0.5625 C 2.664062 -1.050781 1.960938 -1.722656 1.453125 -2.578125 C 0.941406 -3.441406 0.6875 -4.414062 0.6875 -5.5 C 0.6875 -6.570312 0.941406 -7.535156 1.453125 -8.390625 C 1.972656 -9.253906 2.679688 -9.929688 3.578125 -10.421875 C 4.472656 -10.910156 5.472656 -11.15625 6.578125 -11.15625 C 7.484375 -11.15625 8.304688 -10.992188 9.046875 -10.671875 C 9.785156 -10.359375 10.410156 -9.90625 10.921875 -9.3125 L 9.609375 -8.078125 C 8.816406 -8.929688 7.835938 -9.359375 6.671875 -9.359375 C 5.921875 -9.359375 5.242188 -9.191406 4.640625 -8.859375 C 4.046875 -8.535156 3.582031 -8.078125 3.25 -7.484375 C 2.914062 -6.898438 2.75 -6.238281 2.75 -5.5 C 2.75 -4.75 2.914062 -4.082031 3.25 -3.5 C 3.582031 -2.914062 4.046875 -2.457031 4.640625 -2.125 C 5.242188 -1.800781 5.921875 -1.640625 6.671875 -1.640625 C 7.835938 -1.640625 8.816406 -2.070312 9.609375 -2.9375 L 10.921875 -1.6875 C 10.410156 -1.082031 9.78125 -0.625 9.03125 -0.3125 C 8.289062 0 7.46875 0.15625 6.5625 0.15625 Z M 6.5625 0.15625 "/></g></g></g><g fill="#222222" fill-opacity="1"><g transform="translate(204.240164, 43.035698)"><g><path d="M 9.71875 -1.71875 L 9.71875 0 L 1.46875 0 L 1.46875 -11 L 9.5 -11 L 9.5 -9.28125 L 3.515625 -9.28125 L 3.515625 -6.421875 L 8.828125 -6.421875 L 8.828125 -4.75 L 3.515625 -4.75 L 3.515625 -1.71875 Z M 9.71875 -1.71875 "/></g></g></g><g fill="#222222" fill-opacity="1"><g transform="translate(7.707754, 61.178993)"><g><path d="M 4.71875 0 L 3.953125 -1.953125 L 1.484375 -1.953125 L 0.71875 0 L 0 0 L 2.4375 -6.1875 L 3.03125 -6.1875 L 5.453125 0 Z M 3.734375 -2.609375 L 3.015625 -4.515625 C 2.921875 -4.753906 2.820312 -5.050781 2.71875 -5.40625 C 2.65625 -5.132812 2.566406 -4.835938 2.453125 -4.515625 L 1.734375 -2.609375 Z M 3.734375 -2.609375 "/></g></g></g><g fill="#222222" fill-opacity="1"><g transform="translate(15.490348, 61.178993)"><g><path d="M 3.546875 -3.21875 L 5.640625 -3.21875 L 5.640625 -0.234375 C 5.316406 -0.128906 4.984375 -0.0507812 4.640625 0 C 4.304688 0.0507812 3.921875 0.078125 3.484375 0.078125 C 2.546875 0.078125 1.816406 -0.195312 1.296875 -0.75 C 0.785156 -1.300781 0.53125 -2.078125 0.53125 -3.078125 C 0.53125 -3.710938 0.65625 -4.269531 0.90625 -4.75 C 1.164062 -5.238281 1.535156 -5.609375 2.015625 -5.859375 C 2.503906 -6.117188 3.070312 -6.25 3.71875 -6.25 C 4.375 -6.25 4.988281 -6.128906 5.5625 -5.890625 L 5.28125 -5.25 C 4.71875 -5.488281 4.179688 -5.609375 3.671875 -5.609375 C 2.921875 -5.609375 2.332031 -5.382812 1.90625 -4.9375 C 1.488281 -4.488281 1.28125 -3.867188 1.28125 -3.078125 C 1.28125 -2.242188 1.484375 -1.613281 1.890625 -1.1875 C 2.296875 -0.757812 2.894531 -0.546875 3.6875 -0.546875 C 4.113281 -0.546875 4.53125 -0.59375 4.9375 -0.6875 L 4.9375 -2.578125 L 3.546875 -2.578125 Z M 3.546875 -3.21875 "/></g></g></g><g fill="#222222" fill-opacity="1"><g transform="translate(24.093732, 61.178993)"><g><path d="M 5.65625 0 L 4.84375 0 L 1.46875 -5.171875 L 1.4375 -5.171875 C 1.476562 -4.554688 1.5 -4 1.5 -3.5 L 1.5 0 L 0.84375 0 L 0.84375 -6.15625 L 1.65625 -6.15625 L 5.015625 -1.015625 L 5.046875 -1.015625 C 5.035156 -1.085938 5.019531 -1.328125 5 -1.734375 C 4.988281 -2.148438 4.984375 -2.445312 4.984375 -2.625 L 4.984375 -6.15625 L 5.65625 -6.15625 Z M 5.65625 0 "/></g></g></g><g fill="#222222" fill-opacity="1"><g transform="translate(32.920202, 61.178993)"><g><path d="M 0.84375 0 L 0.84375 -6.15625 L 1.5625 -6.15625 L 1.5625 0 Z M 0.84375 0 "/></g></g></g><g fill="#222222" fill-opacity="1"><g transform="translate(37.651144, 61.178993)"><g><path d="M 4.28125 0 L 0.84375 0 L 0.84375 -6.15625 L 4.28125 -6.15625 L 4.28125 -5.515625 L 1.5625 -5.515625 L 1.5625 -3.53125 L 4.109375 -3.53125 L 4.109375 -2.90625 L 1.5625 -2.90625 L 1.5625 -0.640625 L 4.28125 -0.640625 Z M 4.28125 0 "/></g></g></g><g fill="#222222" fill-opacity="1"><g transform="translate(44.772897, 61.178993)"><g><path d="M 4.328125 -1.640625 C 4.328125 -1.097656 4.128906 -0.675781 3.734375 -0.375 C 3.335938 -0.0703125 2.800781 0.078125 2.125 0.078125 C 1.394531 0.078125 0.835938 -0.015625 0.453125 -0.203125 L 0.453125 -0.890625 C 0.703125 -0.785156 0.972656 -0.703125 1.265625 -0.640625 C 1.566406 -0.578125 1.863281 -0.546875 2.15625 -0.546875 C 2.632812 -0.546875 2.992188 -0.632812 3.234375 -0.8125 C 3.472656 -1 3.59375 -1.253906 3.59375 -1.578125 C 3.59375 -1.785156 3.550781 -1.957031 3.46875 -2.09375 C 3.382812 -2.226562 3.238281 -2.351562 3.03125 -2.46875 C 2.832031 -2.582031 2.53125 -2.710938 2.125 -2.859375 C 1.550781 -3.066406 1.140625 -3.3125 0.890625 -3.59375 C 0.648438 -3.875 0.53125 -4.238281 0.53125 -4.6875 C 0.53125 -5.164062 0.707031 -5.546875 1.0625 -5.828125 C 1.414062 -6.109375 1.882812 -6.25 2.46875 -6.25 C 3.082031 -6.25 3.648438 -6.132812 4.171875 -5.90625 L 3.9375 -5.28125 C 3.425781 -5.5 2.929688 -5.609375 2.453125 -5.609375 C 2.078125 -5.609375 1.78125 -5.523438 1.5625 -5.359375 C 1.351562 -5.191406 1.25 -4.96875 1.25 -4.6875 C 1.25 -4.46875 1.285156 -4.289062 1.359375 -4.15625 C 1.441406 -4.019531 1.578125 -3.894531 1.765625 -3.78125 C 1.953125 -3.664062 2.238281 -3.539062 2.625 -3.40625 C 3.269531 -3.175781 3.710938 -2.925781 3.953125 -2.65625 C 4.203125 -2.394531 4.328125 -2.054688 4.328125 -1.640625 Z M 4.328125 -1.640625 "/></g></g></g><g fill="#222222" fill-opacity="1"><g transform="translate(51.831512, 61.178993)"><g><path d="M 4.578125 0 L 0.34375 0 L 0.34375 -0.5625 L 3.609375 -5.515625 L 0.453125 -5.515625 L 0.453125 -6.15625 L 4.484375 -6.15625 L 4.484375 -5.59375 L 1.21875 -0.65625 L 4.578125 -0.65625 Z M 4.578125 0 "/></g></g></g><g fill="#222222" fill-opacity="1"><g transform="translate(59.079539, 61.178993)"><g><path d="M 5.296875 0 L 4.453125 0 L 2.203125 -2.984375 L 1.5625 -2.40625 L 1.5625 0 L 0.84375 0 L 0.84375 -6.15625 L 1.5625 -6.15625 L 1.5625 -3.109375 L 4.359375 -6.15625 L 5.203125 -6.15625 L 2.71875 -3.484375 Z M 5.296875 0 "/></g></g></g><g fill="#222222" fill-opacity="1"><g transform="translate(66.697974, 61.178993)"><g><path d="M 4.71875 0 L 3.953125 -1.953125 L 1.484375 -1.953125 L 0.71875 0 L 0 0 L 2.4375 -6.1875 L 3.03125 -6.1875 L 5.453125 0 Z M 3.734375 -2.609375 L 3.015625 -4.515625 C 2.921875 -4.753906 2.820312 -5.050781 2.71875 -5.40625 C 2.65625 -5.132812 2.566406 -4.835938 2.453125 -4.515625 L 1.734375 -2.609375 Z M 3.734375 -2.609375 "/></g></g></g><g fill="#222222" fill-opacity="1"><g transform="translate(74.480567, 61.178993)"><g/></g></g><g fill="#222222" fill-opacity="1"><g transform="translate(79.047351, 61.178993)"><g><path d="M 4.328125 -1.640625 C 4.328125 -1.097656 4.128906 -0.675781 3.734375 -0.375 C 3.335938 -0.0703125 2.800781 0.078125 2.125 0.078125 C 1.394531 0.078125 0.835938 -0.015625 0.453125 -0.203125 L 0.453125 -0.890625 C 0.703125 -0.785156 0.972656 -0.703125 1.265625 -0.640625 C 1.566406 -0.578125 1.863281 -0.546875 2.15625 -0.546875 C 2.632812 -0.546875 2.992188 -0.632812 3.234375 -0.8125 C 3.472656 -1 3.59375 -1.253906 3.59375 -1.578125 C 3.59375 -1.785156 3.550781 -1.957031 3.46875 -2.09375 C 3.382812 -2.226562 3.238281 -2.351562 3.03125 -2.46875 C 2.832031 -2.582031 2.53125 -2.710938 2.125 -2.859375 C 1.550781 -3.066406 1.140625 -3.3125 0.890625 -3.59375 C 0.648438 -3.875 0.53125 -4.238281 0.53125 -4.6875 C 0.53125 -5.164062 0.707031 -5.546875 1.0625 -5.828125 C 1.414062 -6.109375 1.882812 -6.25 2.46875 -6.25 C 3.082031 -6.25 3.648438 -6.132812 4.171875 -5.90625 L 3.9375 -5.28125 C 3.425781 -5.5 2.929688 -5.609375 2.453125 -5.609375 C 2.078125 -5.609375 1.78125 -5.523438 1.5625 -5.359375 C 1.351562 -5.191406 1.25 -4.96875 1.25 -4.6875 C 1.25 -4.46875 1.285156 -4.289062 1.359375 -4.15625 C 1.441406 -4.019531 1.578125 -3.894531 1.765625 -3.78125 C 1.953125 -3.664062 2.238281 -3.539062 2.625 -3.40625 C 3.269531 -3.175781 3.710938 -2.925781 3.953125 -2.65625 C 4.203125 -2.394531 4.328125 -2.054688 4.328125 -1.640625 Z M 2 -6.75 C 2.132812 -6.925781 2.28125 -7.132812 2.4375 -7.375 C 2.59375 -7.625 2.710938 -7.84375 2.796875 -8.03125 L 3.65625 -8.03125 L 3.65625 -7.9375 C 3.53125 -7.757812 3.34375 -7.535156 3.09375 -7.265625 C 2.851562 -7.003906 2.644531 -6.796875 2.46875 -6.640625 L 2 -6.640625 Z M 2 -6.75 "/></g></g></g><g fill="#222222" fill-opacity="1"><g transform="translate(86.105966, 61.178993)"><g><path d="M 6.21875 0 L 5.515625 0 L 4.265625 -4.125 C 4.210938 -4.300781 4.148438 -4.53125 4.078125 -4.8125 C 4.003906 -5.09375 3.960938 -5.257812 3.953125 -5.3125 C 3.890625 -4.945312 3.789062 -4.539062 3.65625 -4.09375 L 2.453125 0 L 1.75 0 L 0.109375 -6.15625 L 0.875 -6.15625 L 1.84375 -2.359375 C 1.976562 -1.816406 2.078125 -1.332031 2.140625 -0.90625 C 2.210938 -1.414062 2.320312 -1.914062 2.46875 -2.40625 L 3.578125 -6.15625 L 4.34375 -6.15625 L 5.5 -2.375 C 5.632812 -1.945312 5.75 -1.457031 5.84375 -0.90625 C 5.894531 -1.300781 5.992188 -1.785156 6.140625 -2.359375 L 7.109375 -6.15625 L 7.859375 -6.15625 Z M 6.21875 0 "/></g></g></g><g fill="#222222" fill-opacity="1"><g transform="translate(96.414064, 61.178993)"><g><path d="M 0.84375 0 L 0.84375 -6.15625 L 1.5625 -6.15625 L 1.5625 0 Z M 0.84375 0 "/></g></g></g><g fill="#222222" fill-opacity="1"><g transform="translate(101.145005, 61.178993)"><g><path d="M 4.28125 0 L 0.84375 0 L 0.84375 -6.15625 L 4.28125 -6.15625 L 4.28125 -5.515625 L 1.5625 -5.515625 L 1.5625 -3.53125 L 4.109375 -3.53125 L 4.109375 -2.90625 L 1.5625 -2.90625 L 1.5625 -0.640625 L 4.28125 -0.640625 Z M 4.28125 0 "/></g></g></g><g fill="#222222" fill-opacity="1"><g transform="translate(108.266763, 61.178993)"><g><path d="M 1.5625 -2.5625 L 1.5625 0 L 0.84375 0 L 0.84375 -6.15625 L 2.53125 -6.15625 C 3.289062 -6.15625 3.847656 -6.007812 4.203125 -5.71875 C 4.566406 -5.4375 4.75 -5.003906 4.75 -4.421875 C 4.75 -3.609375 4.335938 -3.054688 3.515625 -2.765625 L 5.1875 0 L 4.34375 0 L 2.84375 -2.5625 Z M 1.5625 -3.171875 L 2.546875 -3.171875 C 3.046875 -3.171875 3.414062 -3.269531 3.65625 -3.46875 C 3.894531 -3.675781 4.015625 -3.976562 4.015625 -4.375 C 4.015625 -4.78125 3.894531 -5.070312 3.65625 -5.25 C 3.414062 -5.4375 3.03125 -5.53125 2.5 -5.53125 L 1.5625 -5.53125 Z M 1.5625 -3.171875 "/></g></g></g><g fill="#222222" fill-opacity="1"><g transform="translate(115.923087, 61.178993)"><g><path d="M 3.484375 -5.609375 C 2.804688 -5.609375 2.269531 -5.378906 1.875 -4.921875 C 1.488281 -4.472656 1.296875 -3.859375 1.296875 -3.078125 C 1.296875 -2.273438 1.484375 -1.648438 1.859375 -1.203125 C 2.234375 -0.765625 2.769531 -0.546875 3.46875 -0.546875 C 3.90625 -0.546875 4.394531 -0.625 4.9375 -0.78125 L 4.9375 -0.15625 C 4.507812 0 3.984375 0.078125 3.359375 0.078125 C 2.453125 0.078125 1.753906 -0.191406 1.265625 -0.734375 C 0.773438 -1.285156 0.53125 -2.070312 0.53125 -3.09375 C 0.53125 -3.71875 0.644531 -4.269531 0.875 -4.75 C 1.113281 -5.226562 1.457031 -5.597656 1.90625 -5.859375 C 2.351562 -6.117188 2.878906 -6.25 3.484375 -6.25 C 4.128906 -6.25 4.695312 -6.128906 5.1875 -5.890625 L 4.875 -5.28125 C 4.414062 -5.5 3.953125 -5.609375 3.484375 -5.609375 Z M 3.484375 -5.609375 "/></g></g></g><g fill="#222222" fill-opacity="1"><g transform="translate(123.688848, 61.178993)"><g><path d="M 4.578125 0 L 0.34375 0 L 0.34375 -0.5625 L 3.609375 -5.515625 L 0.453125 -5.515625 L 0.453125 -6.15625 L 4.484375 -6.15625 L 4.484375 -5.59375 L 1.21875 -0.65625 L 4.578125 -0.65625 Z M 4.578125 0 "/></g></g></g><g fill="#222222" fill-opacity="1"><g transform="translate(130.936881, 61.178993)"><g><path d="M 4.28125 0 L 0.84375 0 L 0.84375 -6.15625 L 4.28125 -6.15625 L 4.28125 -5.515625 L 1.5625 -5.515625 L 1.5625 -3.53125 L 4.109375 -3.53125 L 4.109375 -2.90625 L 1.5625 -2.90625 L 1.5625 -0.640625 L 4.28125 -0.640625 Z M 4.28125 0 "/></g></g></g><g fill="#222222" fill-opacity="1"><g transform="translate(138.058639, 61.178993)"><g><path d="M 5.296875 0 L 4.453125 0 L 2.203125 -2.984375 L 1.5625 -2.40625 L 1.5625 0 L 0.84375 0 L 0.84375 -6.15625 L 1.5625 -6.15625 L 1.5625 -3.109375 L 4.359375 -6.15625 L 5.203125 -6.15625 L 2.71875 -3.484375 Z M 5.296875 0 "/></g></g></g><g clip-path="url(#6e0aa0e3ad)"><g clip-path="url(#3c121b77fb)"><path fill="#226FB0" d="M 8.648438 0.636719 L 27.148438 0.636719 L 27.148438 19.136719 L 8.648438 19.136719 Z M 8.648438 0.636719 " fill-opacity="1" fill-rule="nonzero"/></g></g><g clip-path="url(#b4ff9e5999)"><g clip-path="url(#64219cd85f)"><path fill="#38b6ff" d="M 44.695312 0.636719 L 63.195312 0.636719 L 63.195312 19.136719 L 44.695312 19.136719 Z M 44.695312 0.636719 " fill-opacity="1" fill-rule="nonzero"/></g></g><g clip-path="url(#1622db8b1f)"><g clip-path="url(#e799935998)"><path fill="#0cc0df" d="M 80.671875 0.636719 L 99.171875 0.636719 L 99.171875 19.136719 L 80.671875 19.136719 Z M 80.671875 0.636719 " fill-opacity="1" fill-rule="nonzero"/></g></g></svg>