<svg xmlns="http://www.w3.org/2000/svg" xmlns:xlink="http://www.w3.org/1999/xlink" id="visual" viewBox="0 0 425 600" width="425" height="600" version="1.1">
    <path d="M0 38L10.2 37.3C20.3 36.7 40.7 35.3 60.8 35.2C81 35 101 37 121.2 37.8C141.3 38.7 161.7 38.7 182 34.4C202.3 30 222.7 20 243 18.5C263.3 17 283.7 22.3 303.8 25.1C324 27.9 344 29.2 364.2 32.4C384.3 35.7 404.7 40.3 414.8 42.2L425 44L425 0L414.8 0C404.7 0 384.3 0 364.2 0C344 0 324 0 303.8 0C283.7 0 263.3 0 243 0C222.7 0 202.3 0 182 0C161.7 0 141.3 0 121.2 0C101 0 81 0 60.8 0C40.7 0 20.3 0 10.2 0L0 0Z" fill="#006CAB" stroke-linecap="round" stroke-linejoin="miter"/>
</svg>
