<svg xmlns="http://www.w3.org/2000/svg" xmlns:xlink="http://www.w3.org/1999/xlink" id="visual" viewBox="0 0 425 600" width="425" height="600" version="1.1"><path d="M0 122L10.2 123.2C20.3 124.3 40.7 126.7 60.8 131.3C81 136 101 143 121.2 145C141.3 147 161.7 144 182 141.2C202.3 138.3 222.7 135.7 243 141.3C263.3 147 283.7 161 303.8 165.7C324 170.3 344 165.7 364.2 160.3C384.3 155 404.7 149 414.8 146L425 143L425 0L414.8 0C404.7 0 384.3 0 364.2 0C344 0 324 0 303.8 0C283.7 0 263.3 0 243 0C222.7 0 202.3 0 182 0C161.7 0 141.3 0 121.2 0C101 0 81 0 60.8 0C40.7 0 20.3 0 10.2 0L0 0Z" fill="#378FAD" stroke-linecap="round" stroke-linejoin="miter"/></svg>
