<!-- <svg xmlns="http://www.w3.org/2000/svg" xmlns:xlink="http://www.w3.org/1999/xlink" id="visual" viewBox="0 0 425 600" width="425" height="600" version="1.1">
    <path d="M0 50L10.2 48.2C20.3 46.3 40.7 42.7 60.8 41.3C81 40 101 40 121.2 39.5C141.3 39 161.7 37 182 41.2C202.3 45.3 222.7 49.7 243 45.5C263.3 41.3 283.7 26.7 303.8 26.7C324 26.7 344 41.3 364.2 46.7C384.3 52 404.7 52 414.8 52L425 52L425 0L414.8 0C404.7 0 384.3 0 364.2 0C344 0 324 0 303.8 0C283.7 0 263.3 0 243 0C222.7 0 202.3 0 182 0C161.7 0 141.3 0 121.2 0C101 0 81 0 60.8 0C40.7 0 20.3 0 10.2 0L0 0Z" fill="#3D88CA" stroke-linecap="round" stroke-linejoin="miter"/>
</svg> -->
<!-- <svg xmlns="http://www.w3.org/2000/svg" xmlns:xlink="http://www.w3.org/1999/xlink" id="visual" viewBox="0 0 425 300" width="425" height="300" version="1.1">
    <path d="M0 25L10.2 24.1C20.3 23.2 40.7 21.4 60.8 20.65C81 19.9 101 20 121.2 19.75C141.3 19.5 161.7 18.5 182 20.6C202.3 22.7 222.7 24.85 243 22.75C263.3 20.65 283.7 13.35 303.8 13.35C324 13.35 344 20.65 364.2 23.35C384.3 26 404.7 26 414.8 26L425 26L425 0L414.8 0C404.7 0 384.3 0 364.2 0C344 0 324 0 303.8 0C283.7 0 263.3 0 243 0C222.7 0 202.3 0 182 0C161.7 0 141.3 0 121.2 0C101 0 81 0 60.8 0C40.7 0 20.3 0 10.2 0L0 0Z" fill="#3D88CA" stroke-linecap="round" stroke-linejoin="miter"/>
</svg> -->
<!-- <svg xmlns="http://www.w3.org/2000/svg" xmlns:xlink="http://www.w3.org/1999/xlink" id="visual" viewBox="0 0 425 450" width="425" height="450" version="1.1">
    <path d="M0 37.5L10.2 36.15C20.3 34.8 40.7 32.55 60.8 31.85C81 31.15 101 31.5 121.2 31.25C141.3 31 161.7 29 182 33C202.3 37 222.7 47 243 44C263.3 41 283.7 25.5 303.8 25.5C324 25.5 344 41 364.2 43.5C384.3 46 404.7 45 414.8 45L425 45L425 0L414.8 0C404.7 0 384.3 0 364.2 0C344 0 324 0 303.8 0C283.7 0 263.3 0 243 0C222.7 0 202.3 0 182 0C161.7 0 141.3 0 121.2 0C101 0 81 0 60.8 0C40.7 0 20.3 0 10.2 0L0 0Z" fill="#3D88CA" stroke-linecap="round" stroke-linejoin="miter"/>
</svg> -->
<!-- <svg xmlns="http://www.w3.org/2000/svg" xmlns:xlink="http://www.w3.org/1999/xlink" id="visual" viewBox="0 0 425 425" width="425" height="425" version="1.1">
    <path d="M0 35.5L10.2 34.05C20.3 32.6 40.7 30.7 60.8 30.15C81 29.6 101 30 121.2 29.75C141.3 29.5 161.7 28 182 32C202.3 36 222.7 46 243 43C263.3 40 283.7 25.5 303.8 25.5C324 25.5 344 40 364.2 42.5C384.3 45 404.7 44 414.8 44L425 44L425 0L414.8 0C404.7 0 384.3 0 364.2 0C344 0 324 0 303.8 0C283.7 0 263.3 0 243 0C222.7 0 202.3 0 182 0C161.7 0 141.3 0 121.2 0C101 0 81 0 60.8 0C40.7 0 20.3 0 10.2 0L0 0Z" fill="#3D88CA" stroke-linecap="round" stroke-linejoin="miter"/>
</svg> -->
<svg xmlns="http://www.w3.org/2000/svg" xmlns:xlink="http://www.w3.org/1999/xlink" id="visual" viewBox="0 0 425 410" width="425" height="410" version="1.1">
    <path d="M0 33.8333L10.2 32.305C20.3 30.7767 40.7 28.82 60.8 28.335C81 27.85 101 28.14 121.2 27.925C141.3 27.71 161.7 26.3333 182 30.3333C202.3 34.3333 222.7 43.3333 243 40.8333C263.3 38.3333 283.7 24.1667 303.8 24.1667C324 24.1667 344 38.3333 364.2 41.6667C384.3 45 404.7 44.1667 414.8 44.1667L425 44.1667L425 0L414.8 0C404.7 0 384.3 0 364.2 0C344 0 324 0 303.8 0C283.7 0 263.3 0 243 0C222.7 0 202.3 0 182 0C161.7 0 141.3 0 121.2 0C101 0 81 0 60.8 0C40.7 0 20.3 0 10.2 0L0 0Z" fill="#3D88CA" stroke-linecap="round" stroke-linejoin="miter"/>
</svg>