<svg xmlns="http://www.w3.org/2000/svg" xmlns:xlink="http://www.w3.org/1999/xlink" id="visual" viewBox="0 0 425 600" width="425" height="600" version="1.1">
    <path d="M0 50L10.2 48.2C20.3 46.3 40.7 42.7 60.8 41.3C81 40 101 40 121.2 39.5C141.3 39 161.7 37 182 41.2C202.3 45.3 222.7 49.7 243 45.5C263.3 41.3 283.7 26.7 303.8 26.7C324 26.7 344 41.3 364.2 46.7C384.3 52 404.7 52 414.8 52L425 52L425 0L414.8 0C404.7 0 384.3 0 364.2 0C344 0 324 0 303.8 0C283.7 0 263.3 0 243 0C222.7 0 202.3 0 182 0C161.7 0 141.3 0 121.2 0C101 0 81 0 60.8 0C40.7 0 20.3 0 10.2 0L0 0Z" fill="#3D88CA" stroke-linecap="round" stroke-linejoin="miter"/>
</svg>