<svg xmlns="http://www.w3.org/2000/svg" xmlns:xlink="http://www.w3.org/1999/xlink" id="visual" viewBox="0 0 425 600" width="425" height="600" version="1.1">
    <path d="M0 30L10.2 30.8C20.3 31.7 40.7 33.3 60.8 34.8C81 36.3 101 37.7 121.2 38.2C141.3 38.7 161.7 38.7 182 37.8C202.3 36.8 222.7 35.9 243 35.3C263.3 34.7 283.7 41.3 303.8 42.3C324 43.3 344 38.7 364.2 34.3C384.3 30 404.7 26 414.8 24L425 22L425 0L414.8 0C404.7 0 384.3 0 364.2 0C344 0 324 0 303.8 0C283.7 0 263.3 0 243 0C222.7 0 202.3 0 182 0C161.7 0 141.3 0 121.2 0C101 0 81 0 60.8 0C40.7 0 20.3 0 10.2 0L0 0Z" fill="#378FAD" stroke-linecap="round" stroke-linejoin="miter"/>
</svg>