<svg xmlns="http://www.w3.org/2000/svg" xmlns:xlink="http://www.w3.org/1999/xlink" id="visual" viewBox="0 0 425 600" width="425" height="600" version="1.1"><path d="M0 165L10.2 162.2C20.3 159.3 40.7 153.7 60.8 151.3C81 149 101 150 121.2 149.5C141.3 149 161.7 147 182 151.2C202.3 155.3 222.7 165.7 243 161.5C263.3 157.3 283.7 138.7 303.8 138.7C324 138.7 344 157.3 364.2 166.7C384.3 176 404.7 176 414.8 176L425 176L425 0L414.8 0C404.7 0 384.3 0 364.2 0C344 0 324 0 303.8 0C283.7 0 263.3 0 243 0C222.7 0 202.3 0 182 0C161.7 0 141.3 0 121.2 0C101 0 81 0 60.8 0C40.7 0 20.3 0 10.2 0L0 0Z" fill="#3D88CA" stroke-linecap="round" stroke-linejoin="miter"/></svg>